<svg width="241" height="324" viewBox="0 0 241 324" fill="none" xmlns="http://www.w3.org/2000/svg">
<ellipse cx="84.145" cy="312.725" rx="84.075" ry="10.62" fill="black" fill-opacity="0.5"/>
<rect x="118.833" y="226.045" width="39.8523" height="82.2552" rx="3.11109" fill="#00ADB5" stroke="black" stroke-width="1.4557" stroke-linejoin="round"/>
<rect x="14.5795" y="249.797" width="39.8523" height="58.5032" rx="3.11109" fill="#EEEEEE" stroke="black" stroke-width="1.4557" stroke-linejoin="round"/>
<rect x="199.494" y="134.863" width="39.8523" height="173.437" rx="3.11109" fill="#00ADB5" stroke="black" stroke-width="1.4557" stroke-linejoin="round"/>
<path d="M67.4792 113.749L108.454 113.749C108.454 113.749 101.924 173.428 93.0359 183.212C84.1483 192.996 37.6337 219.83 37.6337 219.83L21.9687 210.216L51.1713 164.225C51.1713 164.225 47.9599 146.29 67.4792 113.749Z" fill="#00ADB5" stroke="black" stroke-width="1.238"/>
<path d="M38.296 219.292L21.9688 210.218L13.7055 219.115C13.7055 219.115 27.6356 227.189 37.3543 230.354L33.2382 224.924L38.296 219.292Z" fill="#EEEEEE" stroke="black" stroke-width="1.238" stroke-linejoin="round"/>
<path d="M67.6538 112.88L112.424 112.821C112.424 112.821 137.311 134.706 140.447 147.547C143.582 160.388 140.007 206.989 140.007 206.989L121.912 214.989L103.231 165.768C103.231 165.768 83.7004 147.266 67.6538 112.88Z" fill="#00ADB5"/>
<path d="M67.6538 112.88L67.653 112.261C67.4416 112.261 67.2449 112.369 67.1315 112.547C67.018 112.726 67.0035 112.95 67.0929 113.141L67.6538 112.88ZM112.424 112.821L112.832 112.356L112.657 112.201L112.423 112.202L112.424 112.821ZM140.007 206.989L140.257 207.555L140.595 207.406L140.624 207.036L140.007 206.989ZM121.912 214.989L121.333 215.209L121.565 215.82L122.162 215.555L121.912 214.989ZM103.231 165.768L103.81 165.548L103.76 165.416L103.657 165.318L103.231 165.768ZM67.6546 113.499L112.425 113.44L112.423 112.202L67.653 112.261L67.6546 113.499ZM139.756 206.423L121.662 214.423L122.162 215.555L140.257 207.555L139.756 206.423ZM122.491 214.77L103.81 165.548L102.653 165.987L121.333 215.209L122.491 214.77ZM103.231 165.768C103.657 165.318 103.657 165.318 103.657 165.318C103.657 165.318 103.657 165.318 103.657 165.318C103.656 165.318 103.656 165.317 103.655 165.316C103.652 165.314 103.649 165.311 103.645 165.307C103.636 165.298 103.622 165.285 103.604 165.268C103.568 165.233 103.514 165.18 103.441 165.109C103.297 164.968 103.082 164.755 102.802 164.471C102.241 163.903 101.421 163.051 100.385 161.921C98.3143 159.661 95.3828 156.287 91.9501 151.84C85.0843 142.946 76.2156 129.763 68.2148 112.618L67.0929 113.141C75.1387 130.383 84.0587 143.644 90.9701 152.597C94.426 157.074 97.3802 160.474 99.4726 162.758C100.519 163.9 101.35 164.762 101.92 165.34C102.206 165.629 102.426 165.848 102.575 165.994C102.65 166.067 102.707 166.122 102.746 166.16C102.765 166.178 102.78 166.192 102.79 166.202C102.795 166.207 102.799 166.21 102.801 166.213C102.803 166.214 102.804 166.215 102.804 166.216C102.805 166.216 102.805 166.217 102.805 166.217C102.806 166.217 102.806 166.217 103.231 165.768ZM112.424 112.821C112.015 113.285 112.015 113.286 112.015 113.286C112.015 113.286 112.016 113.286 112.016 113.286C112.017 113.287 112.018 113.288 112.019 113.289C112.022 113.292 112.026 113.295 112.032 113.301C112.044 113.311 112.061 113.327 112.085 113.347C112.131 113.388 112.201 113.45 112.292 113.531C112.474 113.694 112.741 113.934 113.083 114.244C113.767 114.865 114.748 115.768 115.936 116.891C118.312 119.137 121.511 122.265 124.807 125.791C128.104 129.319 131.49 133.237 134.243 137.065C137.005 140.907 139.091 144.603 139.845 147.694L141.048 147.4C140.235 144.071 138.034 140.216 135.248 136.343C132.453 132.455 129.028 128.495 125.712 124.946C122.394 121.396 119.175 118.249 116.787 115.991C115.592 114.862 114.605 113.954 113.915 113.328C113.571 113.015 113.3 112.772 113.116 112.608C113.024 112.526 112.953 112.463 112.906 112.42C112.882 112.399 112.864 112.383 112.851 112.372C112.845 112.367 112.841 112.363 112.837 112.36C112.836 112.359 112.835 112.358 112.834 112.357C112.833 112.357 112.833 112.356 112.833 112.356C112.833 112.356 112.832 112.356 112.424 112.821ZM139.845 147.694C140.611 150.829 140.976 156.086 141.082 162.263C141.187 168.421 141.035 175.438 140.784 182.06C140.533 188.681 140.185 194.902 139.899 199.468C139.756 201.751 139.628 203.62 139.537 204.918C139.491 205.567 139.454 206.073 139.429 206.417C139.416 206.589 139.406 206.72 139.4 206.809C139.396 206.853 139.394 206.886 139.392 206.908C139.391 206.92 139.39 206.928 139.39 206.933C139.39 206.936 139.39 206.938 139.39 206.94C139.39 206.94 139.389 206.941 139.389 206.941C139.389 206.942 139.389 206.942 140.007 206.989C140.624 207.036 140.624 207.036 140.624 207.036C140.624 207.036 140.624 207.035 140.624 207.034C140.624 207.033 140.624 207.031 140.624 207.028C140.625 207.022 140.626 207.014 140.626 207.002C140.628 206.98 140.631 206.946 140.634 206.902C140.641 206.813 140.651 206.681 140.663 206.508C140.689 206.163 140.726 205.656 140.772 205.005C140.863 203.704 140.991 201.832 141.134 199.546C141.421 194.973 141.77 188.741 142.021 182.107C142.272 175.474 142.426 168.432 142.32 162.242C142.214 156.069 141.85 150.685 141.048 147.4L139.845 147.694Z" fill="black"/>
<path fill-rule="evenodd" clip-rule="evenodd" d="M106.921 39.8657C107.939 39.4942 108.909 38.9512 109.794 38.1973C116.474 32.5064 113.61 23.9203 109.567 19.4502C105.524 14.9801 80.7941 16.7632 92.4602 37.4712C92.5094 37.5008 92.5594 37.5306 92.6104 37.5605C93.9147 41.7108 92.8147 45.2706 91.4949 49.5418C90.9566 51.2839 90.3817 53.1443 89.9185 55.2114L102.291 54.3249C105.692 49.7069 106.982 45.052 106.921 39.8657Z" fill="#F5B9AB"/>
<path d="M109.794 38.1973L109.322 37.6433L109.322 37.6433L109.794 38.1973ZM106.921 39.8657L106.671 39.1819C106.381 39.2878 106.189 39.5653 106.193 39.8742L106.921 39.8657ZM109.567 19.4502L110.107 18.962L110.107 18.962L109.567 19.4502ZM92.4602 37.4712L91.8261 37.8285C91.8878 37.9381 91.9769 38.0298 92.0847 38.0947L92.4602 37.4712ZM92.6104 37.5605L93.3047 37.3423C93.2507 37.1702 93.1346 37.0244 92.9791 36.933L92.6104 37.5605ZM91.4949 49.5418L90.7995 49.327L90.7995 49.327L91.4949 49.5418ZM89.9185 55.2114L89.2083 55.0523C89.158 55.2768 89.2168 55.512 89.367 55.6864C89.5172 55.8608 89.741 55.9539 89.9705 55.9374L89.9185 55.2114ZM102.291 54.3249L102.343 55.0509C102.556 55.0356 102.751 54.928 102.878 54.7565L102.291 54.3249ZM109.322 37.6433C108.507 38.3376 107.614 38.8382 106.671 39.1819L107.17 40.5495C108.265 40.1502 109.311 39.5649 110.266 38.7514L109.322 37.6433ZM109.027 19.9384C110.964 22.0798 112.612 25.2064 112.978 28.4477C113.341 31.6556 112.455 34.9744 109.322 37.6433L110.266 38.7514C113.813 35.7293 114.835 31.9096 114.425 28.2841C114.018 24.6922 112.213 21.2907 110.107 18.962L109.027 19.9384ZM93.0944 37.114C90.2268 32.0239 89.6699 28.2255 90.3498 25.4647C91.0248 22.7235 92.9588 20.8486 95.4343 19.6768C97.92 18.5001 100.902 18.062 103.511 18.195C104.813 18.2614 106 18.4689 106.968 18.7839C107.949 19.1033 108.642 19.5127 109.027 19.9384L110.107 18.962C109.481 18.2702 108.517 17.7574 107.418 17.3997C106.305 17.0375 104.988 16.8127 103.585 16.7412C100.785 16.5985 97.5553 17.0622 94.8114 18.361C92.0572 19.6648 89.7434 21.839 88.9363 25.1166C88.134 28.3745 88.8606 32.5645 91.8261 37.8285L93.0944 37.114ZM92.9791 36.933C92.9304 36.9044 92.8826 36.8759 92.8358 36.8477L92.0847 38.0947C92.1361 38.1257 92.1885 38.1568 92.2417 38.1881L92.9791 36.933ZM92.1903 49.7567C93.5007 45.516 94.6869 41.7405 93.3047 37.3423L91.916 37.7788C93.1424 41.6812 92.1287 45.0252 90.7995 49.327L92.1903 49.7567ZM90.6288 55.3706C91.0848 53.3355 91.6513 51.5012 92.1903 49.7567L90.7995 49.327C90.2619 51.0666 89.6787 52.9531 89.2083 55.0523L90.6288 55.3706ZM102.239 53.5989L89.8665 54.4854L89.9705 55.9374L102.343 55.0509L102.239 53.5989ZM106.193 39.8742C106.252 44.914 105.006 49.4118 101.705 53.8933L102.878 54.7565C106.379 50.002 107.711 45.19 107.649 39.8572L106.193 39.8742Z" fill="black"/>
<path d="M90.2405 24.9663C88.3043 27.66 90.3897 34.3129 91.9283 35.9769C79.1789 28.9027 87.2504 12.9416 91.1842 15.8522C91.8253 9.95113 98.5965 7.86911 103.212 12.8598C114.785 3.51408 115.394 19.4389 111.309 21.8608C107.225 24.2826 102.269 21.9763 99.6968 23.2251C97.1248 24.474 95.5378 32.0387 94.7046 27.8401C93.8715 23.6416 92.6606 21.5992 90.2405 24.9663Z" fill="#00ADB5" stroke="black" stroke-width="1.4557"/>
<path d="M113.918 113.834C127.263 104.959 121.694 74.2895 119.795 65.5696C119.454 64.0008 118.948 62.4958 118.334 61.0121C113.29 48.8181 100.846 38.9966 88.927 44.661C63.5401 56.7262 67.3143 95.2121 67.5539 114.123L113.918 113.834Z" fill="#EEEEEE" stroke="black" stroke-width="1.4557" stroke-linejoin="round"/>
<path d="M154.058 72.3344L143.347 59.2636L107.258 84.513L95.5934 61.0345L80.4898 84.5128C80.4898 84.5128 96.8522 109.925 105.164 109.187C120.311 107.841 154.058 72.3344 154.058 72.3344Z" fill="#EEEEEE"/>
<path d="M96.3927 62.7479L107.156 83.7924L143.346 59.2643L154.057 72.3351C154.057 72.3351 122.245 107.622 103.655 109.274C97.804 109.793 80.7579 84.2588 80.7579 84.2588" stroke="black" stroke-width="1.4557"/>
<path d="M146.908 56.9051L142.666 59.6278L153.315 73.1199L156.664 70.4065C160.228 67.5196 160.792 62.2973 157.928 58.7156C155.26 55.3793 150.503 54.5978 146.908 56.9051Z" fill="#F5B9AB" stroke="black" stroke-width="1.4557" stroke-linejoin="round"/>
<path d="M140.227 205.291L121.913 214.839L125.063 226.771L149.516 211.712L142.321 212.689L140.227 205.291Z" fill="#EEEEEE" stroke="black" stroke-width="1.238" stroke-linejoin="round"/>
</svg>
