<svg width="144" height="115" viewBox="0 0 144 115" fill="none" xmlns="http://www.w3.org/2000/svg">
<path d="M2.29543 24.1425C8.28464 13.3285 13.9459 -1.16981 28.7469 2.79608C35.7799 4.68059 41.245 15.1646 40.815 21.8304C40.4584 27.3597 41.9943 34.3433 36.2879 37.7858C31.8057 40.4898 26.1414 40.1058 22.6069 35.9196C12.5695 24.0318 31.117 15.7024 40.3141 17.5211C52.8675 20.0035 67.4142 51.2788 56.4802 61.1566C47.1054 69.6258 40.9372 56.6293 47.4854 48.9205C56.6968 38.0765 65.1699 37.7325 75.8815 49.3307C84.2452 58.3866 81.7298 74.3702 74.9815 82.7785C73.58 84.5248 68.3343 96.7484 67.0676 95.5229C54.5692 83.4303 76.7118 65.6137 89.016 68.1469C103.153 71.0575 117.424 74.1638 126.769 85.3532C131.794 91.3704 141.068 112.898 139.286 105.264C137.055 95.7101 134.914 82.5996 138.874 73.0841C140.053 70.2527 143.597 61.1201 140.605 69.9845C137.523 79.1138 134.596 87.0834 133.342 96.1487C133.063 98.166 135.684 101.028 136.579 102.739C137.337 104.188 131.439 102.326 130.735 102.253C124.65 101.621 119.088 103.964 113.875 106.877C109.221 109.477 103.895 114.356 100.386 112.621" stroke="#00ADB5" stroke-opacity="0.2" stroke-width="3.54" stroke-linecap="round" stroke-linejoin="round"/>
</svg>
