<svg width="130" height="134" viewBox="0 0 130 134" fill="none" xmlns="http://www.w3.org/2000/svg">
<path d="M127.635 114.545C119.279 123.656 110.38 136.425 96.9194 129.102C90.5234 125.623 87.6658 114.151 89.645 107.771C91.2868 102.479 91.4293 95.3301 97.7833 93.3198C102.774 91.7408 108.191 93.4408 110.647 98.3384C117.62 112.246 97.6381 116 89.1228 112.078C77.4999 106.724 70.683 72.9119 83.6264 65.8697C94.724 59.8318 97.6767 73.9115 89.5051 79.8722C78.0101 88.2571 69.6921 86.607 61.9949 72.8226C55.9849 62.0597 62.1739 47.1099 70.7038 40.5159C72.4754 39.1465 80.4382 28.4915 81.3826 29.9796C90.7011 44.6632 65.0014 56.7981 53.6328 51.4535C40.5706 45.3128 27.424 38.9503 20.9602 25.8835C17.4842 18.8568 13.5097 -4.24417 13.4544 3.59508C13.3853 13.4054 12.396 26.6527 6.31764 34.976C4.50894 37.4527 -1.07572 45.5012 3.90945 37.5841C9.04357 29.4305 13.7559 22.3682 17.0981 13.8488C17.8418 11.9529 15.9639 8.5566 15.4945 6.6837C15.097 5.09737 20.3945 8.28909 21.0625 8.52529C26.8301 10.5647 32.7857 9.58907 38.5366 7.97825C43.6695 6.54051 49.9902 3.04486 52.9952 5.55343" stroke="#00ADB5" stroke-opacity="0.2" stroke-width="3.54" stroke-linecap="round" stroke-linejoin="round"/>
</svg>
