<svg width="70" height="89" viewBox="0 0 70 89" fill="none" xmlns="http://www.w3.org/2000/svg">
<path d="M16.0228 59.6248C21.2116 54.1958 21.4851 52.325 22.3779 45.7147C22.8695 42.0746 23.6118 38.5873 23.6375 34.885C23.6833 28.2642 25.3741 19.7797 31.6857 16.1088C44.1049 8.88562 58.6997 27.6913 49.8658 38.6865C46.5036 42.8712 41.9329 45.4188 38.1184 49.1959C36.5886 50.7107 35.4832 52.4989 33.6683 53.8124C31.9277 55.072 29.7649 56.6406 29.2369 58.6368C28.7909 60.3229 28.7152 62.6421 27.1284 63.8173C24.9364 65.4407 25.8021 64.5366 23.3632 63.8915C21.6867 63.448 19.5668 61.4614 18.5009 60.0221C17.7398 58.9944 16.6313 61.0911 17.2003 58.94C17.6888 57.0934 17.8768 58.7868 16.6616 58.4653" stroke="#00ADB5" stroke-opacity="0.5" stroke-width="1.47205" stroke-linecap="round" stroke-linejoin="round"/>
<path d="M22.2227 67.5753C19.165 65.7075 10.5614 61.0668 11.9647 64.3635C13.6578 68.3412 15.1925 66.9782 18.1558 68.5107C19.6712 69.2944 19.9265 74.6789 18.1157 74.3122C15.5295 73.7883 14.7472 69.9154 12.1536 69.2293C9.79304 68.6048 9.14029 71.7562 10.2646 73.2316C11.7492 75.18 14.3121 74.1858 14.9712 76.7831C16.0126 80.8874 10.7362 78.8687 9.41729 77.6203C8.08855 76.3626 6.9611 74.6492 6.01963 73.5848" stroke="#00ADB5" stroke-opacity="0.5" stroke-width="1.47205" stroke-linecap="round" stroke-linejoin="round"/>
<path d="M16.2897 58.6161C16.2604 58.8975 15.8216 60.7341 16.5502 60.9268C16.9425 61.0306 17.1859 60.8404 17.4917 61.1344C17.8513 61.4801 18.1008 62.1359 18.4186 62.5651C18.6988 62.9433 19.7626 63.1871 19.8713 63.5951C20.0491 64.2617 20.637 64.7564 21.2455 64.9919C22.0345 65.2973 22.2272 65.7848 23.1433 65.8215C23.4233 65.8326 23.4949 65.67 23.7426 65.7355C24.1251 65.8367 24.2418 66.0633 24.6155 65.8188C25.0291 65.5482 25.5953 65.52 25.8919 65.0217C26.2952 64.3442 27.1649 64.1616 25.908 64.3156" stroke="#00ADB5" stroke-opacity="0.5" stroke-width="1.47205" stroke-linecap="round" stroke-linejoin="round"/>
<path d="M39.3954 31.8483C38.005 31.4885 36.8338 31.2744 35.9711 32.6215C35.3841 33.538 35.1181 34.521 34.8429 35.5612C34.5754 36.5725 34.9811 37.5498 34.7293 38.5018C34.3964 39.7601 33.4445 39.2879 32.4914 39.4459C31.5911 39.5951 30.9281 39.7433 30.2778 40.4379C29.6337 41.1257 29.5498 42.7628 29.3773 43.65C29.2289 44.4135 29.1639 46.1024 28.4772 46.5994C28.104 46.8694 26.4225 46.9939 27.6305 46.5045" stroke="#00ADB5" stroke-opacity="0.5" stroke-width="1.47205" stroke-linecap="round" stroke-linejoin="round"/>
<path d="M47.3976 48.9936C48.314 50.0263 49.2833 50.9449 50.4029 51.7398C50.8723 52.0731 51.4662 52.6033 51.5654 51.7567" stroke="#00ADB5" stroke-opacity="0.5" stroke-width="1.47205" stroke-linecap="round" stroke-linejoin="round"/>
<path d="M54.2654 39.3522C56.1102 40.3477 57.9257 41.3999 59.7397 42.4425C60.0415 42.6159 59.5132 41.5973 59.4921 41.5651" stroke="#00ADB5" stroke-opacity="0.5" stroke-width="1.47205" stroke-linecap="round" stroke-linejoin="round"/>
<path d="M57.4978 29.3302C59.6167 29.5734 61.7483 29.7436 63.8738 29.919C64.8523 29.9998 65.2156 30.227 64.8969 29.2948" stroke="#00ADB5" stroke-opacity="0.5" stroke-width="1.47205" stroke-linecap="round" stroke-linejoin="round"/>
<path d="M49.332 15.629C51.0189 15.7721 52.4885 15.8688 54.1381 15.5257C54.9103 15.3652 55.6753 15.129 56.4616 15.0425C57.3961 14.9398 57.3871 15.044 56.5939 14.2288" stroke="#00ADB5" stroke-opacity="0.5" stroke-width="1.47205" stroke-linecap="round" stroke-linejoin="round"/>
<path d="M37.1338 4.92941C36.4629 6.51414 36.2797 7.52114 36.5511 9.18971C36.6975 10.0892 36.7323 11.1864 36.6802 12.1022C36.6622 12.4176 36.6513 12.5969 36.794 12.875C36.8475 12.9791 36.8342 11.9062 36.8268 11.7397" stroke="#00ADB5" stroke-opacity="0.5" stroke-width="1.47205" stroke-linecap="round" stroke-linejoin="round"/>
<path d="M23.5162 8.3847C23.5777 10.2361 23.8767 12.0756 23.8628 13.9102C23.8557 14.8384 23.7024 14.8544 23.5582 13.8758" stroke="#00ADB5" stroke-opacity="0.5" stroke-width="1.47205" stroke-linecap="round" stroke-linejoin="round"/>
<path d="M15.2859 19.4093C16.6453 21.4016 17.5901 23.6783 18.4638 25.9145C18.5733 26.1947 18.7497 26.3307 18.8897 26.5714C19.2079 27.1184 18.7196 25.9438 18.6647 25.7831" stroke="#00ADB5" stroke-opacity="0.5" stroke-width="1.47205" stroke-linecap="round" stroke-linejoin="round"/>
</svg>
