<svg width="486" height="581" viewBox="0 0 486 581" fill="none" xmlns="http://www.w3.org/2000/svg">
<path d="M162.867 367.065C161.709 367.237 160.346 367.327 160.07 368.706C159.856 369.775 159.937 370.875 160.578 371.803C161.673 373.387 163.299 374.312 165.258 373.986C167.01 373.694 169.416 372.106 169.416 370.135C169.416 369.023 168.616 367.905 167.953 367.073C167.243 366.181 166.63 365.244 165.736 364.514C164.53 363.531 163.557 363.435 162.473 364.594C161.88 365.229 161.319 366.094 161.059 366.925C160.931 367.334 161.025 367.663 161.025 368.073C161.025 368.621 160.923 367.813 161.025 367.543" stroke="#00ADB5" stroke-opacity="0.5" stroke-width="0.885" stroke-linecap="round" stroke-linejoin="round"/>
<path d="M168.87 370.197C169.856 371.073 170.692 371.864 172.435 371.907C173.655 371.937 174.875 371.632 176.018 371.304C176.837 371.07 179.462 369.826 177.335 369.726" stroke="#00ADB5" stroke-opacity="0.5" stroke-width="0.885" stroke-linecap="round" stroke-linejoin="round"/>
<path d="M179.035 362.563C177.735 363.999 175.939 366.814 176.613 368.972C176.851 369.73 177.195 370.241 177.64 370.889C178.537 372.194 179.927 371.787 181.188 371.446C182.102 371.199 183.188 370.421 183.538 369.536C184.021 368.315 183.014 366.405 182.173 365.564C181.234 364.625 180.491 363.483 179.445 362.661C179.166 362.442 178.955 362.205 178.592 362.286C178.184 362.377 178.016 362.767 178.558 362.767" stroke="#00ADB5" stroke-opacity="0.5" stroke-width="0.885" stroke-linecap="round" stroke-linejoin="round"/>
<path d="M270.997 165.721C269.838 165.892 268.475 165.982 268.2 167.362C267.986 168.431 268.067 169.531 268.707 170.458C269.802 172.043 271.429 172.968 273.388 172.641C275.14 172.349 277.546 170.762 277.546 168.79C277.546 167.679 276.745 166.56 276.083 165.728C275.373 164.836 274.759 163.899 273.866 163.17C272.66 162.186 271.686 162.09 270.602 163.249C270.009 163.884 269.448 164.75 269.189 165.58C269.061 165.99 269.155 166.318 269.155 166.729C269.155 167.276 269.053 166.469 269.155 166.198" stroke="#00ADB5" stroke-opacity="0.5" stroke-width="0.885" stroke-linecap="round" stroke-linejoin="round"/>
<path d="M277 168.853C277.986 169.728 278.821 170.519 280.564 170.562C281.785 170.592 283.004 170.287 284.148 169.96C284.967 169.725 287.592 168.482 285.465 168.381" stroke="#00ADB5" stroke-opacity="0.5" stroke-width="0.885" stroke-linecap="round" stroke-linejoin="round"/>
<path d="M287.165 161.218C285.864 162.654 284.069 165.469 284.743 167.627C284.98 168.386 285.324 168.896 285.77 169.545C286.667 170.849 288.057 170.443 289.317 170.102C290.231 169.855 291.317 169.077 291.667 168.192C292.15 166.97 291.144 165.061 290.303 164.22C289.364 163.281 288.62 162.138 287.574 161.317C287.296 161.098 287.084 160.861 286.721 160.941C286.313 161.032 286.145 161.423 286.687 161.423" stroke="#00ADB5" stroke-opacity="0.5" stroke-width="0.885" stroke-linecap="round" stroke-linejoin="round"/>
<path d="M171.22 123.96C177.899 120.778 183.298 115.517 188.727 110.556C192.994 106.657 197.469 102.804 202.178 99.4386C203.107 98.7747 204.419 97.4384 205.675 98.0079C206.92 98.5723 207.638 100.109 208.621 101.019C211.044 103.259 213.222 105.997 215.214 108.63C217.407 111.529 214.119 113.133 212.086 115.031C209.777 117.187 207.572 119.41 205.05 121.312C202.653 123.12 200.727 125.612 198.532 127.659C195.188 130.779 192.06 134.1 188.725 137.222C186.74 139.081 184.462 140.599 182.55 142.524C181.88 143.198 181.261 144.09 180.488 144.651C179.868 145.102 179.009 143.368 178.788 143.041C177.035 140.448 174.319 138.674 172.602 135.962C171.523 134.257 170.797 132.152 169.505 130.595C168.888 129.851 167.346 128.178 168.022 127.092C168.711 125.983 170.67 125.452 171.738 124.658C172.571 124.039 173.583 123.274 174.531 122.844C175.22 122.531 175.896 121.977 176.512 121.55C178.134 120.426 176.415 120.906 175.319 121.324" stroke="#00ADB5" stroke-opacity="0.5" stroke-width="0.885" stroke-linecap="round" stroke-linejoin="round"/>
<path d="M172.241 129.051C176.307 131.568 179.954 135.21 183.128 138.803C183.208 138.894 183.981 139.432 183.863 139.631C183.635 140.016 180.997 138.279 180.744 138.105" stroke="#00ADB5" stroke-opacity="0.5" stroke-width="0.885" stroke-linecap="round" stroke-linejoin="round"/>
<path d="M176.271 125.412C179.568 126.356 181.532 128.152 184.194 130.073C185.379 130.929 186.587 131.702 187.651 132.708C188.151 133.181 188.506 133.804 188.968 134.313C189.601 135.012 187.017 133.502 186.712 133.328" stroke="#00ADB5" stroke-opacity="0.5" stroke-width="0.885" stroke-linecap="round" stroke-linejoin="round"/>
<path d="M181.061 122.591C183.368 124.673 185.687 126.726 188.066 128.724C188.97 129.483 189.996 130.18 190.776 131.074C192.162 132.661 190.347 130.602 189.731 130.02" stroke="#00ADB5" stroke-opacity="0.5" stroke-width="0.885" stroke-linecap="round" stroke-linejoin="round"/>
<path d="M184.293 120.606C186.004 121.647 187.791 122.655 189.24 124.057C189.834 124.633 190.327 125.311 190.963 125.844C191.746 126.501 192.431 127.267 193.219 127.905C194.341 128.814 194.51 129.079 193.177 127.938" stroke="#00ADB5" stroke-opacity="0.5" stroke-width="0.885" stroke-linecap="round" stroke-linejoin="round"/>
<path d="M188.46 117.552C190.348 119.029 192.095 120.529 193.673 122.331C194.372 123.129 194.935 124.051 195.823 124.663C196.636 125.224 197.205 125.386 196.254 124.474" stroke="#00ADB5" stroke-opacity="0.5" stroke-width="0.885" stroke-linecap="round" stroke-linejoin="round"/>
<path d="M192.471 114.438C194.133 115.687 195.772 116.827 197.099 118.436C197.707 119.172 198.187 120.019 198.866 120.698C200.244 122.077 199.296 121.382 198.299 120.446" stroke="#00ADB5" stroke-opacity="0.5" stroke-width="0.885" stroke-linecap="round" stroke-linejoin="round"/>
<path d="M196.171 111.208C198.504 113.44 200.458 116.055 202.796 118.26C204.37 119.744 202.115 117.365 201.746 116.943" stroke="#00ADB5" stroke-opacity="0.5" stroke-width="0.885" stroke-linecap="round" stroke-linejoin="round"/>
<path d="M200.688 108.64C202.652 107.838 204.689 106.882 205.745 104.923C206.036 104.382 206.411 103.912 206.53 103.303C206.695 102.467 206.663 102.825 206.043 103.367" stroke="#00ADB5" stroke-opacity="0.5" stroke-width="0.885" stroke-linecap="round" stroke-linejoin="round"/>
<path d="M203.85 111.337C205.407 109.892 207.148 108.314 208.289 106.48C208.858 105.565 209.942 104.448 208.426 105.772" stroke="#00ADB5" stroke-opacity="0.5" stroke-width="0.885" stroke-linecap="round" stroke-linejoin="round"/>
<path d="M208.842 114.366C210.261 112.824 211.523 111.39 212.829 109.778C213.251 109.257 214.537 108.581 212.99 108.995" stroke="#00ADB5" stroke-opacity="0.5" stroke-width="0.885" stroke-linecap="round" stroke-linejoin="round"/>
<path d="M207.713 113.587C209.198 112.314 210.878 110.833 212.054 109.226C212.368 108.797 212.61 108.32 212.897 107.874C213.379 107.128 213.409 107.38 212.679 107.457" stroke="#00ADB5" stroke-opacity="0.5" stroke-width="0.885" stroke-linecap="round" stroke-linejoin="round"/>
<path d="M176.25 131.622C183.648 128.616 185.474 120.46 191.503 115.847C192.237 115.286 192.832 114.662 193.688 114.273C194.26 114.014 194.966 113.889 195.486 113.557C195.804 113.354 198.441 111.34 196.608 112.172" stroke="#00ADB5" stroke-opacity="0.5" stroke-width="0.885" stroke-linecap="round" stroke-linejoin="round"/>
<path d="M172.805 129.44C173.635 128.431 174.372 127.567 175.426 126.836C175.599 126.717 175.865 126.696 176.007 126.537C176.289 126.22 176.715 125.756 176.824 125.348C177.251 123.738 179.338 124.036 180.447 123.229C181.501 122.461 182.516 121.684 183.591 120.925C184.775 120.089 185.323 119.357 186.275 118.286C187.148 117.302 187.996 116.307 188.921 115.376C189.678 114.614 190.867 113.921 191.348 112.946C191.892 111.846 193.281 110.586 194.531 110.79C194.961 110.86 198.116 112.689 196.054 111.52" stroke="#00ADB5" stroke-opacity="0.5" stroke-width="0.885" stroke-linecap="round" stroke-linejoin="round"/>
<path d="M179.5 133.375C185.06 130.442 188.145 124.048 191.9 119.218C193.284 117.439 195.26 116.257 196.708 114.509C197.327 113.761 198.695 112.967 197.104 112.98" stroke="#00ADB5" stroke-opacity="0.5" stroke-width="0.885" stroke-linecap="round" stroke-linejoin="round"/>
<path d="M181.485 135.186C186.523 132.089 189.748 126.326 193.414 121.76C195.081 119.683 196.69 117.562 198.378 115.501C199.148 114.562 200.49 113.975 198.768 114.937" stroke="#00ADB5" stroke-opacity="0.5" stroke-width="0.885" stroke-linecap="round" stroke-linejoin="round"/>
<path d="M183.469 138.418C186.613 135.352 189.151 132.044 191.723 128.498C193.287 126.342 194.639 123.918 196.476 121.977C197.529 120.863 198.341 119.559 199.297 118.378C199.683 117.902 199.949 117.348 200.345 116.876C201.237 115.813 200.615 116.775 199.994 117.351" stroke="#00ADB5" stroke-opacity="0.5" stroke-width="0.885" stroke-linecap="round" stroke-linejoin="round"/>
<path d="M184.209 139.761C185.773 138.229 188.065 136.754 189.109 134.766C189.488 134.044 190.425 132.302 191.083 131.86C191.952 131.276 192.366 130.034 192.999 129.253C193.658 128.44 194.303 127.646 195.018 126.873C195.688 126.147 195.903 124.874 196.733 124.25C197.657 123.554 198.107 122.478 198.845 121.647C199.483 120.929 200.698 120.184 201.49 119.635C201.929 119.331 202.235 118.916 202.733 118.69C203.742 118.232 203.087 118.467 202.164 118.432" stroke="#00ADB5" stroke-opacity="0.5" stroke-width="0.885" stroke-linecap="round" stroke-linejoin="round"/>
<path d="M200.561 109.214C201.855 109.555 203.451 109.79 204.63 110.495C205.391 110.95 206.054 111.407 204.668 110.578" stroke="#00ADB5" stroke-opacity="0.5" stroke-width="0.885" stroke-linecap="round" stroke-linejoin="round"/>
<path d="M201.905 107.054C203.751 107.536 205.055 108.077 206.561 109.058C207.545 109.7 207.387 109.523 206.362 108.905" stroke="#00ADB5" stroke-opacity="0.5" stroke-width="0.885" stroke-linecap="round" stroke-linejoin="round"/>
<path d="M204.144 104.875C205.729 105.766 207.267 106.779 208.906 107.556C209.871 108.012 209.365 107.98 208.62 107.621" stroke="#00ADB5" stroke-opacity="0.5" stroke-width="0.885" stroke-linecap="round" stroke-linejoin="round"/>
<path d="M205.42 103.133C207.086 103.892 208.623 104.648 210.158 105.602C210.857 106.038 210.222 106.066 209.692 105.714" stroke="#00ADB5" stroke-opacity="0.5" stroke-width="0.885" stroke-linecap="round" stroke-linejoin="round"/>
<path d="M201.379 108.456C202.638 106.958 203.901 105.54 205.048 104.005C205.374 103.569 207.358 101.141 206.5 102.384" stroke="#00ADB5" stroke-opacity="0.5" stroke-width="0.885" stroke-linecap="round" stroke-linejoin="round"/>
<path d="M202.701 111.084C204.34 109.635 206.701 107.704 207.23 105.54C207.386 104.903 207.724 104.266 208.218 103.828C208.72 103.384 209.244 103.183 208.495 103.932" stroke="#00ADB5" stroke-opacity="0.5" stroke-width="0.885" stroke-linecap="round" stroke-linejoin="round"/>
<path d="M201.388 111.035C203.135 109.153 204.628 107.888 205.615 105.57C205.871 104.968 206.165 104.469 206.586 103.995C207.032 103.493 207.672 103.023 206.811 103.922" stroke="#00ADB5" stroke-opacity="0.5" stroke-width="0.885" stroke-linecap="round" stroke-linejoin="round"/>
<path d="M207.879 111.962C208.684 112.472 209.491 112.944 210.327 113.369C210.672 113.544 210.245 113.205 210.098 113.15" stroke="#00ADB5" stroke-opacity="0.5" stroke-width="0.885" stroke-linecap="round" stroke-linejoin="round"/>
<path d="M209.447 109.441C209.501 109.487 212.664 112.198 212.103 111.593" stroke="#00ADB5" stroke-opacity="0.5" stroke-width="0.885" stroke-linecap="round" stroke-linejoin="round"/>
<path d="M211.326 108.459C212.023 109.13 214.16 111.093 213.408 110.484" stroke="#00ADB5" stroke-opacity="0.5" stroke-width="0.885" stroke-linecap="round" stroke-linejoin="round"/>
<path d="M206.945 113.032C208.101 111.955 210.637 109.822 211.258 108.167C211.503 107.515 212.624 106.676 211.57 107.573" stroke="#00ADB5" stroke-opacity="0.5" stroke-width="0.885" stroke-linecap="round" stroke-linejoin="round"/>
<path d="M207.09 113.353C207.2 113.441 209.412 115.823 209.883 114.668C210.124 114.078 210.438 113.311 211.028 112.986C212.064 112.416 212.255 110.62 213.316 110.138C214.519 109.592 214.406 108.676 213.286 108.351C212.846 108.223 213.193 107.356 212.736 107.424C212.317 107.486 212.096 107.332 211.628 107.417" stroke="#00ADB5" stroke-opacity="0.5" stroke-width="0.885" stroke-linecap="round" stroke-linejoin="round"/>
<path d="M200.415 108.893C201.174 110.343 201.317 110.868 202.541 111.473C202.871 111.636 203.302 111.409 203.553 111.537C204.049 111.789 205.029 111.794 205.4 111.337C206.144 110.418 206.418 109.824 207.559 109.265C208.279 108.913 208.857 108.081 209.19 107.391C209.556 106.633 210.216 106.061 210.602 105.3C210.766 104.976 209.438 104.141 209.426 103.581C209.423 103.422 207.846 103.417 207.584 103.284C207.266 103.122 207.12 102.895 206.967 102.559C206.745 102.068 206.35 102.678 205.751 102.724" stroke="#00ADB5" stroke-opacity="0.5" stroke-width="0.885" stroke-linecap="round" stroke-linejoin="round"/>
<path d="M174.149 127.28C175.941 127.961 177.503 128.839 179.116 129.811C180.516 130.654 182.099 131.104 183.49 131.921C184.481 132.504 185.509 133.833 186.24 134.705C186.484 134.996 186.665 135.268 186.838 135.596C187.235 136.348 186.822 134.53 186.78 134.331" stroke="#00ADB5" stroke-opacity="0.5" stroke-width="0.885" stroke-linecap="round" stroke-linejoin="round"/>
<path d="M191.449 113.611C191.946 114.132 193.958 117.012 193.561 114.848" stroke="#00ADB5" stroke-opacity="0.5" stroke-width="0.885" stroke-linecap="round" stroke-linejoin="round"/>
<path d="M195.59 313.506C195.803 314.603 196.345 315.315 196.765 316.313C197.051 316.992 197.586 317.518 197.884 318.185C198.205 318.905 198.687 319.75 199.136 320.391C199.52 320.94 199.772 321.461 200.257 321.946C201.114 322.804 201.763 323.825 202.625 324.67C203.877 325.899 205.997 327.502 207.822 327.401C208.408 327.368 209.056 327.55 209.631 327.463C210.124 327.389 210.723 327.364 211.217 327.449C212.029 327.589 212.91 327.448 213.687 327.616C214.106 327.707 214.562 327.574 214.987 327.653C215.537 327.755 216.182 327.78 216.743 327.78C218.578 327.78 220.409 327.769 222.24 327.537C223.232 327.411 224.214 327.739 225.196 327.565C226.118 327.401 227.346 327.57 228.213 327.191C229.278 326.725 230.338 325.992 231.161 325.169C231.574 324.756 231.887 324.263 232.166 323.753C232.533 323.083 232.738 322.36 233.106 321.691C234.393 319.359 235.126 316.764 236.168 314.333C236.413 313.761 236.817 313.296 237.111 312.767C237.185 312.633 237.219 312.462 237.34 312.334C237.795 311.853 236.925 311.802 236.525 311.62" stroke="#00ADB5" stroke-opacity="0.5" stroke-width="0.885" stroke-linecap="round" stroke-linejoin="round"/>
<path d="M195.386 313.608C196.297 312.416 197.07 311.541 198.393 310.867C199.502 310.303 200.652 309.632 201.653 308.896C203.192 307.764 205.31 307.26 207.184 306.919C209.224 306.548 211.231 306.115 213.307 306.115C213.949 306.115 214.585 306.308 215.227 306.319C215.996 306.331 216.767 306.355 217.533 306.421C218.707 306.521 219.913 306.497 221.09 306.522C222.731 306.558 224.303 307.408 225.944 307.539C226.92 307.617 228.059 307.763 229.008 308.029C229.364 308.129 229.77 308.196 230.102 308.358C230.514 308.558 230.804 308.898 231.183 309.134C232.408 309.896 233.777 310.254 235.1 310.833C235.506 311.01 236.203 311.314 236.652 311.314C237.27 311.314 237.238 312.456 237.238 311.314" stroke="#00ADB5" stroke-opacity="0.5" stroke-width="0.885" stroke-linecap="round" stroke-linejoin="round"/>
<path d="M237.136 312.028C236.38 313.041 235.841 313.427 234.769 314.019C233.927 314.484 232.994 314.812 232.05 314.985C231.169 315.146 230.207 315.273 229.314 315.345C228.571 315.404 227.813 315.318 227.054 315.404C225.338 315.6 223.606 316.042 221.951 316.526C219.587 317.216 217.305 317.288 214.865 317.42C212.2 317.565 209.529 317.361 206.918 316.82C206.037 316.638 205.107 316.801 204.21 316.766C203.223 316.728 202.256 316.456 201.327 316.135C200.936 316 200.576 315.792 200.166 315.699C199.686 315.589 199.198 315.632 198.722 315.517C198.058 315.357 197.283 315.067 196.722 314.679C196.478 314.51 196.112 314.371 195.921 314.115C195.865 314.041 195.793 313.875 195.793 313.787C195.793 313.576 195.621 313.629 195.895 313.812" stroke="#00ADB5" stroke-opacity="0.5" stroke-width="0.885" stroke-linecap="round" stroke-linejoin="round"/>
<path d="M215.216 322.377C215.837 322.308 216.657 322.319 216.4 321.521C216.318 321.265 216.11 321.238 215.89 321.164C215.234 320.946 214.061 321.369 213.814 322.054C213.372 323.282 214.209 324.609 215.525 324.183C215.883 324.068 216.518 323.815 216.745 323.49C217.019 323.099 216.609 323.215 216.338 322.835" stroke="#00ADB5" stroke-opacity="0.5" stroke-width="0.885" stroke-linecap="round" stroke-linejoin="round"/>
<path d="M213.33 321.051C214.319 320.654 214.825 320.49 215.825 320.49C216.228 320.49 216.43 320.462 216.785 320.694C217.372 321.078 217.574 321.808 217.513 322.45C217.461 322.993 217.282 323.736 217.091 324.251C216.949 324.634 216.598 324.701 216.239 324.772C215.91 324.838 215.194 324.654 214.936 324.798C214.662 324.95 213.823 325.002 213.61 324.719C213.415 324.458 213.206 324.346 213.064 324.03C212.928 323.729 212.867 323.441 212.758 323.141C212.608 322.729 212.339 321.605 212.897 321.357C213.224 321.212 213.363 321.125 213.738 321.125C213.844 321.125 213.935 321.204 214.044 321.204C214.2 321.204 213.742 321.102 213.585 321.102" stroke="#00ADB5" stroke-opacity="0.5" stroke-width="0.885" stroke-linecap="round" stroke-linejoin="round"/>
<path d="M215.114 316.973C215.833 316.043 216.489 315.084 217.233 314.18C217.632 313.695 218.128 313.277 218.558 312.813C219.79 311.482 221.045 310.026 221.985 308.471C222.91 306.939 224.173 305.271 225.545 304.121C226.269 303.513 226.917 302.842 227.547 302.141C228.159 301.462 228.44 300.511 229.02 299.793C229.468 299.237 232.405 295.454 232.917 297.754C233.118 298.658 232.236 299.291 231.682 299.844C231.053 300.473 230.422 301.271 229.886 301.985C229.37 302.674 228.742 303.279 228.241 303.974C227.559 304.918 226.317 305.594 225.819 306.664C225.409 307.547 224.728 308.256 224.216 309.074C223.508 310.208 222.678 311.155 221.843 312.192C221.182 313.015 220.145 313.69 219.677 314.628C219.285 315.411 218.591 315.741 217.958 316.248C217.682 316.469 217.347 316.591 217.102 316.896C217.021 316.998 216.875 317.116 216.799 317.001C216.756 316.936 216.59 317.082 216.621 317.154C216.729 317.408 216.465 316.544 216.44 316.463" stroke="#00ADB5" stroke-opacity="0.5" stroke-width="0.885" stroke-linecap="round" stroke-linejoin="round"/>
<path d="M214.706 317.228C214.902 317.327 216.134 318.262 216.134 317.508C216.134 317.28 216.427 316.9 216.53 316.667C216.608 316.491 215.904 316.66 215.799 316.794C215.663 316.971 215.397 317.114 215.828 317.126C216.159 317.135 216.417 316.993 216.669 316.797C216.741 316.741 217.714 316.895 216.847 316.871C216.387 316.858 215.939 316.871 215.496 316.871C215.114 316.871 215.889 316.769 216.001 316.769C216.09 316.769 215.354 317.206 215.227 317.064C215.197 317.029 215.143 316.933 215.267 316.871" stroke="#00ADB5" stroke-opacity="0.5" stroke-width="0.885" stroke-linecap="round" stroke-linejoin="round"/>
<path d="M198.495 313.456C198.553 313.486 200.375 314.44 200.382 314.322C200.39 314.18 200.288 314.055 200.359 313.914C200.667 313.298 201.066 313.593 201.597 313.832C202.01 314.018 201.382 311.956 202.63 312.827C203.275 313.277 203.447 313.205 203.341 312.45C203.261 311.879 203.458 311.877 203.95 311.938C204.284 311.979 204.524 312.052 204.715 311.734C204.946 311.348 205.207 311.128 205.68 311.295C206.073 311.433 206.421 311.821 206.691 311.326C206.81 311.108 206.71 310.456 207.085 310.581C207.32 310.659 207.63 310.966 207.898 310.87C208.101 310.797 208.257 310.167 208.487 310.267C208.727 310.37 208.972 310.826 209.274 310.717C209.42 310.664 209.692 310.187 209.405 310.244" stroke="#00ADB5" stroke-opacity="0.5" stroke-width="0.885" stroke-linecap="round" stroke-linejoin="round"/>
<path d="M205.683 312.538C206.315 313.052 208.682 315.798 209.376 313.747C209.501 313.38 209.521 312.652 209.869 313.254C210.156 313.751 210.589 314.095 211.059 313.625C211.37 313.314 211.508 312.786 211.954 312.623C212.362 312.473 212.662 313.241 213.001 312.793C213.275 312.431 213.143 311.809 212.741 311.592C212.609 311.521 212.572 311.766 212.514 311.824" stroke="#00ADB5" stroke-opacity="0.5" stroke-width="0.885" stroke-linecap="round" stroke-linejoin="round"/>
<path d="M211.138 309.377C212.122 309.208 213.363 308.864 214.112 309.745C214.459 310.154 214.426 310.676 214.196 311.139C214.029 311.477 213.578 311.646 213.29 311.314C213.054 311.042 213.541 310.594 213.715 310.428C214.312 309.859 215.196 310.77 215.383 311.388C215.539 311.904 214.128 313.101 214.298 312.589" stroke="#00ADB5" stroke-opacity="0.5" stroke-width="0.885" stroke-linecap="round" stroke-linejoin="round"/>
<path d="M227.706 311.111C227.998 311.01 229.879 310.404 229.518 311.405C229.333 311.919 228.624 312.194 228.159 312.362C227.939 312.442 227.37 312.428 227.74 312.107C228.059 311.83 228.509 311.7 228.929 311.734C230.565 311.867 228.277 313.746 227.808 314.005C226.895 314.509 225.653 315.038 224.698 314.424" stroke="#00ADB5" stroke-opacity="0.5" stroke-width="0.885" stroke-linecap="round" stroke-linejoin="round"/>
<path d="M217.663 308.103C218.051 308.734 218.518 309.368 218.849 310.031C218.964 310.26 218.47 309.675 218.354 309.448C218.323 309.388 218.111 308.719 218.09 308.723C217.842 308.778 217.784 309.915 217.717 310.125C217.399 311.117 216.614 310.737 215.845 310.663C214.913 310.573 214.496 311.492 213.981 312.079C213.569 312.548 213.407 312.693 213.687 313.252C213.913 313.704 214.007 314.142 213.687 314.551C213.437 314.871 213.124 315.072 212.823 315.336C212.547 315.577 212.943 315.538 212.891 315.393C212.749 314.997 211.877 315.079 211.591 315.098C210.53 315.168 209.449 314.902 208.408 314.968C207.854 315.003 207.333 315.311 206.785 315.393C206.228 315.475 206.964 315.959 207.173 316.098C207.532 316.337 206.47 315.589 206.08 315.404C205.425 315.094 204.821 314.854 204.482 314.169C204.143 313.482 203.844 313.014 203.27 312.51C203.072 312.336 203.049 312.071 203.146 311.835C203.369 311.289 203.866 310.845 204.358 310.55" stroke="#00ADB5" stroke-opacity="0.5" stroke-width="0.885" stroke-linecap="round" stroke-linejoin="round"/>
<path d="M217.561 310.142C216.283 309.25 215.229 308.866 213.726 308.664C213.198 308.592 212.635 308.227 212.291 307.822C211.985 307.464 212.158 307.559 211.798 308.046C211.305 308.712 210.94 308.114 210.311 308.29C209.347 308.559 208.519 309.455 207.541 309.621C207.273 309.666 207.338 309.218 207.003 309.411C206.439 309.736 206.008 310.044 205.349 310.148C204.951 310.21 204.195 310.473 204.256 310.958" stroke="#00ADB5" stroke-opacity="0.5" stroke-width="0.885" stroke-linecap="round" stroke-linejoin="round"/>
<path d="M226.227 310.142C227.46 310.261 228.71 310.245 229.937 310.377C230.369 310.423 230.59 310.598 230.894 310.881C231.169 311.136 231.597 311.738 231.99 311.77C232.558 311.818 232.851 311.582 233.381 311.416C233.7 311.317 234.718 311.416 234.384 311.416" stroke="#00ADB5" stroke-opacity="0.5" stroke-width="0.885" stroke-linecap="round" stroke-linejoin="round"/>
<path d="M225.31 311.518C223.984 312.392 223.276 313.716 221.857 314.512C221.577 314.669 220.717 314.974 220.781 315.492C220.828 315.866 223.7 314.694 224.137 314.475" stroke="#00ADB5" stroke-opacity="0.5" stroke-width="0.885" stroke-linecap="round" stroke-linejoin="round"/>
<path d="M230.255 312.742C230.975 313.278 231.597 314.045 232.498 313.773C232.741 313.699 233.252 313.67 233.415 313.506" stroke="#00ADB5" stroke-opacity="0.5" stroke-width="0.885" stroke-linecap="round" stroke-linejoin="round"/>
<path d="M408.406 290.518C404.684 291.233 401.977 292.308 399.618 295.341C398.122 297.264 398.45 300.29 399.43 302.328C401.045 305.686 405.013 307.583 408.594 307.747C412.765 307.939 418.564 306.713 419.419 301.739C419.877 299.072 417.329 296.55 416.137 294.363C415.166 292.584 413.705 290.186 411.662 289.433C410.828 289.126 408.892 289.233 408.286 290.063C408.015 290.434 407.666 290.825 407.468 291.242C407.309 291.579 407.48 290.383 407.442 290.036" stroke="#00ADB5" stroke-opacity="0.5" stroke-width="0.885" stroke-linecap="round" stroke-linejoin="round"/>
<path d="M409.974 299.682C408.969 300.198 407.339 300.541 408.219 301.672C408.419 301.929 408.705 301.915 408.949 301.672C409.157 301.463 410.207 300.369 409.431 300.111C407.849 299.583 408.428 302.74 409.558 301.343C410.166 300.593 409.316 299.854 408.554 300.312C407.646 300.856 408.364 301.808 409.076 300.982C409.613 300.359 409.184 299.882 408.601 300.466C408.078 300.989 408.609 301.823 409.123 301.116C409.65 300.39 409.049 299.776 408.413 300.412C407.677 301.148 408.474 301.071 408.996 300.586C409.522 300.098 408.589 300.17 408.286 300.553C407.582 301.443 408.684 301.316 408.862 300.553C409.123 299.431 407.966 302.008 408.527 300.044" stroke="#00ADB5" stroke-opacity="0.5" stroke-width="0.885" stroke-linecap="round" stroke-linejoin="round"/>
<path d="M405.874 295.944C406.945 297.357 408.043 298.698 408.942 300.111C409.191 300.502 408.993 300.895 409.13 300.888C409.637 300.86 410.157 300.767 410.697 300.767C411.934 300.767 412.908 300.164 414.1 300.164C415.544 300.164 417.664 299.79 415.279 298.597" stroke="#00ADB5" stroke-opacity="0.5" stroke-width="0.885" stroke-linecap="round" stroke-linejoin="round"/>
<path d="M404.668 290.398C404.443 289.258 403.343 286.494 405.392 286.787C406.127 286.892 406.621 287.653 407.053 288.134C408.179 289.384 408.058 290.893 406.236 291.001C405.759 291.029 405.086 291.975 404.548 291.302C403.938 290.54 404.561 290.591 404.668 289.674C404.739 289.075 404.348 289.124 404.179 288.536C404.05 288.084 404.318 287.589 404.427 287.263" stroke="#00ADB5" stroke-opacity="0.5" stroke-width="0.885" stroke-linecap="round" stroke-linejoin="round"/>
<path d="M405.392 289.071C405.381 289.359 404.937 291.954 405.881 291.53C406.197 291.388 406.47 291.181 406.598 290.853C406.722 290.536 406.59 290.346 406.45 290.036C406.091 289.237 405.048 287.995 405.365 289.795C405.566 290.931 406.834 290.665 406.933 289.58C407.008 288.752 405.963 287.642 405.298 288.589C404.828 289.259 405.666 290.735 406.156 289.701C406.404 289.176 405.81 287.841 405.178 288.495C404.53 289.166 405.503 290.582 406.142 290.009C406.774 289.443 406.345 287.715 405.66 288.375C405.034 288.978 405.973 290.178 406.45 289.259C406.983 288.234 405.81 287.462 405.446 288.535C405.12 289.494 406.135 290.525 406.37 289.219C406.549 288.224 404.722 287.696 404.722 288.884C404.722 289.978 405.7 289.866 405.7 288.87C405.7 287.832 404.655 288.066 405.091 288.937C405.526 289.809 406.11 288.262 405.62 287.772C405.047 287.199 404.289 288.084 404.963 288.636C405.423 289.012 406.051 287.452 405.278 287.162C404.611 286.912 404.98 288.274 405.211 287.966C405.57 287.488 405.02 287.168 405.399 287.263C405.732 287.346 406.543 287.524 406.772 287.819C406.952 288.05 407.683 289.34 407.683 289.674C407.683 290.698 406.116 291.251 405.218 290.994C404.573 290.81 404.382 291.265 404.608 291.114C405.157 290.749 405.271 289.795 405.271 290.157" stroke="#00ADB5" stroke-opacity="0.5" stroke-width="0.885" stroke-linecap="round" stroke-linejoin="round"/>
<path d="M405.271 307.64C404.65 308.957 404.099 310.281 403.369 311.525C403.204 311.806 402.896 312.378 402.86 312.704C402.762 313.584 403.646 310.606 403.824 310.172" stroke="#00ADB5" stroke-opacity="0.5" stroke-width="0.885" stroke-linecap="round" stroke-linejoin="round"/>
<path d="M417.45 305.108C418.977 307.036 420.66 308.411 421.851 310.527C421.968 310.736 422.171 310.901 422.333 311.063C422.875 311.605 421.327 309.907 420.826 309.328" stroke="#00ADB5" stroke-opacity="0.5" stroke-width="0.885" stroke-linecap="round" stroke-linejoin="round"/>
<path d="M316.308 192.685C317.262 196.289 320.949 209.686 321.831 214.58C324.26 228.057 320.449 209.667 320.44 215.62" stroke="#00ADB5" stroke-opacity="0.5" stroke-width="1.77" stroke-linecap="round" stroke-linejoin="round"/>
<path d="M309.837 198.512C309.511 193.028 308.281 185.417 315.97 186.2C319.588 186.569 323.573 188.716 325.828 191.589C329.313 196.028 327.474 202.909 323.708 206.442C321.704 208.322 319.76 209.264 317.137 209.975C312.694 211.18 316.2 205.009 316.916 203.317" stroke="#00ADB5" stroke-opacity="0.5" stroke-width="1.77" stroke-linecap="round" stroke-linejoin="round"/>
<path d="M329.836 205.213C337.476 204.804 344.509 203.3 347.242 211.586C348.83 216.401 350.765 222.252 349.441 227.326C348.244 231.912 345.667 234.778 340.956 232.825C334.222 230.034 334.232 224.779 337.896 219.538C339.246 217.609 344.413 213.745 344.417 211.489" stroke="#00ADB5" stroke-opacity="0.5" stroke-width="1.77" stroke-linecap="round" stroke-linejoin="round"/>
<path d="M343.607 196.272C343.346 198.282 343.342 212.503 339.493 212.639C338.772 212.665 338.166 213.04 337.535 213.354C335.112 214.561 336.586 213.475 337.491 212.219C339.54 209.375 343.69 210.426 345.768 206.651C348.024 202.552 349.063 200.535 345.828 197.364C343.561 195.141 344.557 191.361 342.773 196.687" stroke="#00ADB5" stroke-opacity="0.5" stroke-width="1.77" stroke-linecap="round" stroke-linejoin="round"/>
<path d="M354.883 183.367C357.836 190.014 360.534 198.672 365.271 204.458C366.523 205.987 367.226 204.656 367.207 203.465C367.183 201.96 366.758 200.442 366.322 199.017" stroke="#00ADB5" stroke-opacity="0.5" stroke-width="1.77" stroke-linecap="round" stroke-linejoin="round"/>
<path d="M346.31 200.653C350.995 198.81 362.498 196.944 364.459 191.094" stroke="#00ADB5" stroke-opacity="0.5" stroke-width="1.77" stroke-linecap="round" stroke-linejoin="round"/>
<path d="M360.719 183.584C381.025 219.103 361.241 194.139 371.563 187.643C377.828 183.7 378.351 202.284 380.087 194.245" stroke="#00ADB5" stroke-opacity="0.5" stroke-width="1.77" stroke-linecap="round" stroke-linejoin="round"/>
<path d="M378.855 182.362C379.591 184.565 382.066 199.107 387.217 195.785C389.521 194.3 392.204 191.468 392.648 188.684C393.124 185.696 391.258 178.107 387.035 178.924C385.108 179.297 381.885 179.387 380.628 181.219C379.413 182.989 378.646 187.135 380.105 182.781" stroke="#00ADB5" stroke-opacity="0.5" stroke-width="1.77" stroke-linecap="round" stroke-linejoin="round"/>
<path d="M393.242 178.842C399.001 175.145 405.769 173.931 406.646 182.638C406.756 183.731 406.776 185.107 407.277 186.113C407.858 187.279 406.665 183.261 405.534 182.613" stroke="#00ADB5" stroke-opacity="0.5" stroke-width="1.77" stroke-linecap="round" stroke-linejoin="round"/>
<path d="M392.82 182.176C393.081 186.727 392.43 192.893 394.557 197.163C394.629 197.309 395.135 198.423 394.88 197.812C394.376 196.604 394.167 195.784 393.218 194.474" stroke="#00ADB5" stroke-opacity="0.5" stroke-width="1.77" stroke-linecap="round" stroke-linejoin="round"/>
<path d="M247.072 223.379C246.274 230.777 247.665 253.554 235.1 252.136C232.481 251.841 230.101 251.403 228.857 248.935C227.554 246.351 226.476 244.102 226.346 241.167C226.187 237.561 227.622 235.859 230.538 234.232C231.56 233.661 229.363 235.972 229.168 236.196C227.887 237.667 232.235 235.873 233.896 235.505" stroke="#00ADB5" stroke-opacity="0.5" stroke-width="1.77" stroke-linecap="round" stroke-linejoin="round"/>
<path d="M263.203 226.934C256.848 227.528 247.877 228.734 246.852 236.684C246.296 240.996 252.707 241.52 255.491 242.989C260.272 245.513 263.9 253.743 258.537 257.365C254.807 259.884 251.986 258.546 248.358 258.797C244.672 259.052 247.238 257.694 249.423 257.322" stroke="#00ADB5" stroke-opacity="0.5" stroke-width="1.77" stroke-linecap="round" stroke-linejoin="round"/>
<path d="M297.641 31.1925C297.132 36.2965 296.821 41.4527 296.192 46.5446C296.131 47.0345 295.649 48.9684 296.219 47.4049C296.636 46.2616 296.502 45.0702 297.171 43.9861C298.094 42.4929 302.262 36.8049 304.219 37.3803C308.143 38.5334 304.183 45.8107 303.059 47.896C302.672 48.6152 301.616 50.1753 302.163 50.9818C302.892 52.057 304.24 48.0834 304.297 47.9619" stroke="#00ADB5" stroke-opacity="0.5" stroke-width="1.77" stroke-linecap="round" stroke-linejoin="round"/>
<path d="M313.136 34.5439C312.671 36.8242 308.765 48.0797 312.529 49.9441C313.591 50.4702 315.94 49.4771 316.67 48.6209C317.43 47.7294 317.033 46.3642 316.951 45.3295" stroke="#00ADB5" stroke-opacity="0.5" stroke-width="1.77" stroke-linecap="round" stroke-linejoin="round"/>
<path d="M305.393 34.7898C309.522 36.0177 313.769 36.8352 317.871 38.1019C318.839 38.401 319.202 38.5365 319.724 39.4003C320.535 40.744 318.38 39.5166 318.009 39.1095" stroke="#00ADB5" stroke-opacity="0.5" stroke-width="1.77" stroke-linecap="round" stroke-linejoin="round"/>
<path d="M324.065 42.7678C323.118 45.6289 322.227 48.5259 321.145 51.3413C320.93 51.9011 320.898 52.1057 320.782 51.6782C320.67 51.2664 320.562 51.0237 320.744 50.5887C321.716 48.2771 323.985 44.9549 326.124 43.6637C328.435 42.2694 327.174 46.9528 326.864 47.9009C326.515 48.9656 325.576 51.8839 326.644 49.0601C327.279 47.3795 328.738 43.203 331.196 43.8109C332.685 44.179 332.341 46.1919 332.078 47.2563C331.592 49.2192 331.11 51.1688 330.623 53.1382C329.912 56.016 330.296 54.4619 330.816 52.3589" stroke="#00ADB5" stroke-opacity="0.5" stroke-width="1.77" stroke-linecap="round" stroke-linejoin="round"/>
<path d="M342.419 36.5036C340.936 41.8384 339.116 47.158 337.838 52.5482C337.688 53.1804 337.361 55.5211 338.367 55.7999C339.324 56.0648 343.101 53.795 342.178 53.0081" stroke="#00ADB5" stroke-opacity="0.5" stroke-width="1.77" stroke-linecap="round" stroke-linejoin="round"/>
<path d="M85.6429 254.112C82.1355 260.775 78.6392 267.444 75.1222 274.103C74.1198 276 72.1413 281.807 71.8963 279.675C71.5642 276.783 73.3307 272.736 74.0802 270.027C75.1381 266.203 77.2921 258.564 82.6595 258.592C86.7111 258.614 91.2659 264.555 91.8942 268.262C92.3379 270.879 93.6279 267.924 95.3788 267.134" stroke="#00ADB5" stroke-opacity="0.5" stroke-width="1.77" stroke-linecap="round" stroke-linejoin="round"/>
<path d="M96.5152 275.459C98.8722 280.941 102.347 290.208 109.502 285.109C112.789 282.767 111.156 278.758 107.91 277.484C99.9564 274.364 89.9342 283.078 87.9506 290.24C85.9674 297.401 93.7962 299.597 99.1816 300.304C102.162 300.695 101.493 298.148 104.057 297.261" stroke="#00ADB5" stroke-opacity="0.5" stroke-width="1.77" stroke-linecap="round" stroke-linejoin="round"/>
<path d="M116.324 294.413C110.145 291.832 101.959 289.532 98.4775 297.428C96.7992 301.234 104.31 301.68 106.538 301.576C110.793 301.376 120.268 291.526 117.076 294.346C114.274 296.821 111.439 299.743 110.288 303.398C109.544 305.759 110.398 310.975 113.135 307.372" stroke="#00ADB5" stroke-opacity="0.5" stroke-width="1.77" stroke-linecap="round" stroke-linejoin="round"/>
<path d="M140.351 299.352C131.383 300.212 120.755 300.663 117.574 310.738C116.01 315.692 119.679 319.136 124.101 320.589C127.19 321.605 130.34 319.4 132.214 317.162" stroke="#00ADB5" stroke-opacity="0.5" stroke-width="1.77" stroke-linecap="round" stroke-linejoin="round"/>
<path d="M148.496 300.719C148.004 301.317 125.914 325.394 136.444 325.58C139.359 325.631 142.351 323.935 144.359 322.028" stroke="#00ADB5" stroke-opacity="0.5" stroke-width="1.77" stroke-linecap="round" stroke-linejoin="round"/>
<path d="M129.785 305.1C134.026 308.025 138.208 311.122 142.86 313.382C144.069 313.97 146.082 314.25 146.914 315.467C147.381 316.151 146.647 314.526 146.565 314.29" stroke="#00ADB5" stroke-opacity="0.5" stroke-width="1.77" stroke-linecap="round" stroke-linejoin="round"/>
<path d="M82.4755 112.331C86.0348 118.418 97.338 136.177 92.7493 130.823C89.8162 127.4 87.5882 122.859 85.7285 118.81C83.777 114.562 81.9445 106.981 89.3813 107.366C95.7641 107.696 98.3122 114.215 99.435 119.557C99.9304 121.914 100.057 123.745 101.114 125.889C102.195 128.081 102.255 119.636 102.666 117.444" stroke="#00ADB5" stroke-opacity="0.5" stroke-width="1.77" stroke-linecap="round" stroke-linejoin="round"/>
<path d="M105.472 99.9512C105.67 100.872 108.747 121.922 113.213 117.873C115.093 116.169 115.506 111.967 115.747 109.665C116.502 102.471 113.463 101.582 108.412 100.06C106.003 99.3337 105.509 99.3665 104.847 101.847C103.489 106.94 105.63 105.509 108.375 102.677" stroke="#00ADB5" stroke-opacity="0.5" stroke-width="1.77" stroke-linecap="round" stroke-linejoin="round"/>
<path d="M124.889 94.0132C122.408 98.1945 119.244 103.113 120.99 108.235C121.714 110.359 123.398 109.798 124.577 108.602C126.439 106.715 127.409 103.613 127.306 101.021C127.107 96.052 123.995 91.8002 120.729 88.2698C120.276 87.7804 116.152 84.3802 116.959 87.2995C118.41 92.5432 122.448 97.5869 125.261 102.144C129.899 109.656 131.321 106.739 133.404 99.6879" stroke="#00ADB5" stroke-opacity="0.5" stroke-width="1.77" stroke-linecap="round" stroke-linejoin="round"/>
<path d="M133.845 95.3133C135.385 96.7492 147.536 105.429 147.913 97.7299C147.947 97.0314 147.057 96.8134 146.763 96.2182C146.007 94.6844 144.754 93.6728 144.072 92.8683" stroke="#00ADB5" stroke-opacity="0.5" stroke-width="1.77" stroke-linecap="round" stroke-linejoin="round"/>
<path d="M134.858 100.53C130.047 94.212 123.326 87.6433 130.216 81.3974C133.119 78.7656 139.141 80.8467 138.984 85.2438C138.911 87.2919 138.479 92.356 135.537 92.8908C133.982 93.1735 133.265 92.1551 134.704 90.7323" stroke="#00ADB5" stroke-opacity="0.5" stroke-width="1.77" stroke-linecap="round" stroke-linejoin="round"/>
<path d="M145.841 74.327C148.952 76.3062 171.117 89.4049 159.507 95.1302C157.698 96.0225 156.106 93.9429 155.144 92.605C152.975 89.5886 159.292 85.3097 159.556 82.1147" stroke="#00ADB5" stroke-opacity="0.5" stroke-width="1.77" stroke-linecap="round" stroke-linejoin="round"/>
<path d="M164.034 63.7966C162.224 65.2752 151.839 74.4588 160.005 76.2345C164.516 77.2152 168.779 72.7205 172.207 70.4769C177.73 66.8627 178.896 73.8175 177.378 77.7429C176.449 80.1469 168.69 88.014 170.813 81.7597" stroke="#00ADB5" stroke-opacity="0.5" stroke-width="1.77" stroke-linecap="round" stroke-linejoin="round"/>
<path d="M225.326 405.615C218.417 409.092 209.365 415.431 216.833 423.844C220.416 427.879 227.03 426.226 231.748 425.76C233.073 425.629 236.731 426.904 235.735 426.019C233.582 424.104 232.032 424.228 231.385 420.996" stroke="#00ADB5" stroke-opacity="0.5" stroke-width="1.77" stroke-linecap="round" stroke-linejoin="round"/>
<path d="M245.834 403.285C245.834 408.377 245.786 412.023 251.012 414.004C253.269 414.86 254.686 415.645 255.285 418.173C255.962 421.031 253.968 425.171 251.608 426.77C248.69 428.746 245.025 429.435 241.742 428.09C238.931 426.938 242.039 425.576 243.503 424.258" stroke="#00ADB5" stroke-opacity="0.5" stroke-width="1.77" stroke-linecap="round" stroke-linejoin="round"/>
<path d="M268.671 397.692C267.754 401.244 263.622 410.742 267.299 414.419C268.783 415.903 271.657 415.079 273.487 415.506C275.308 415.932 276.87 417.326 277.993 418.769C279.769 421.053 278.078 424.515 276.025 426.122C272.839 428.615 268.289 427.521 264.58 427.521C262.556 427.521 263.938 427.377 264.942 426.122" stroke="#00ADB5" stroke-opacity="0.5" stroke-width="1.77" stroke-linecap="round" stroke-linejoin="round"/>
<path d="M260.636 353.491C264.227 352.12 270.887 349.94 274.36 347.484C278.026 344.89 274.187 344.145 272.236 344.765C268.931 345.815 266.935 349.276 265.815 352.326C262.866 360.354 272.247 369.429 280.134 368.509C287.422 367.658 288.438 364.09 289.533 358.618" stroke="#00ADB5" stroke-opacity="0.5" stroke-width="1.77" stroke-linecap="round" stroke-linejoin="round"/>
<path d="M294.194 349.296C293.377 350.626 285.62 366.596 283.474 359.084" stroke="#00ADB5" stroke-opacity="0.5" stroke-width="1.77" stroke-linecap="round" stroke-linejoin="round"/>
<path d="M279.745 349.762C283.018 354.137 290.925 369.778 298.855 369.337C300.004 369.273 298.479 364.846 298.389 364.21" stroke="#00ADB5" stroke-opacity="0.5" stroke-width="1.77" stroke-linecap="round" stroke-linejoin="round"/>
<path d="M301.185 349.762C302.992 360.353 306.614 392.362 304.551 381.818C303.487 376.381 293.774 346.961 302.324 348.183C306.033 348.712 315.499 354.123 313.018 359.084C311.623 361.873 302.979 362.847 306.778 360.948" stroke="#00ADB5" stroke-opacity="0.5" stroke-width="1.77" stroke-linecap="round" stroke-linejoin="round"/>
<path d="M318.896 357.219C320.047 363.211 321.156 369.199 322.159 375.215C322.33 376.245 322.1 375.396 321.796 374.827C319.89 371.252 317.279 364.881 317.368 360.87C317.453 357.07 322.681 354.479 325.421 357.219" stroke="#00ADB5" stroke-opacity="0.5" stroke-width="1.77" stroke-linecap="round" stroke-linejoin="round"/>
<path d="M333.811 364.211C333.689 368.597 336.872 383.952 344.427 379.487C345.509 378.848 348.18 377.285 348.259 375.862C348.301 375.104 346.921 374.93 346.395 374.93C345.01 374.93 344.664 373.213 344.064 372.134" stroke="#00ADB5" stroke-opacity="0.5" stroke-width="1.77" stroke-linecap="round" stroke-linejoin="round"/>
<path d="M331.48 365.609C335.562 361.386 340.154 355.567 343.779 363.097C344.841 365.301 344.471 367.958 343.598 370.166C342.188 373.733 337.137 375.14 338.471 369.803" stroke="#00ADB5" stroke-opacity="0.5" stroke-width="1.77" stroke-linecap="round" stroke-linejoin="round"/>
<path d="M356.648 357.219C359.843 362.324 372.762 376.084 364.287 382.362C361.575 384.37 359.805 384.361 356.752 384.252C352.441 384.098 354.719 383.005 356.182 379.591" stroke="#00ADB5" stroke-opacity="0.5" stroke-width="1.77" stroke-linecap="round" stroke-linejoin="round"/>
<path d="M376.223 355.355C375.259 356.522 362.796 368.571 370.371 369.855C373.164 370.328 375.73 368.637 378.295 370.347C382.922 373.432 381.826 377.614 377.57 380.238C375.443 381.55 373.069 382.238 370.837 383.32C369.576 383.931 370.92 382.16 371.096 381.455" stroke="#00ADB5" stroke-opacity="0.5" stroke-width="1.77" stroke-linecap="round" stroke-linejoin="round"/>
<path d="M365.504 350.228C364.422 351.023 352.769 357.49 354.421 361.414C356.506 366.365 357.195 360.271 357.58 358.152" stroke="#00ADB5" stroke-opacity="0.5" stroke-width="1.77" stroke-linecap="round" stroke-linejoin="round"/>
<path d="M79.0443 197.767C81.1201 192.873 80.2699 188.608 80.2699 183.535C80.2699 182.548 80.0909 179.543 81.1279 179.005C82.7632 178.156 84.2915 177.59 86.221 177.59C87.5038 177.59 88.7926 177.627 90.0749 177.59C91.3573 177.553 92.5995 177.031 93.8675 176.876C96.2266 176.587 98.6804 176.99 101.01 176.99C102.86 176.99 104.773 177.23 106.553 177.23C106.868 177.23 108.156 177.38 108.364 177.563C108.999 178.123 108.817 179.022 109.317 179.512" stroke="#00ADB5" stroke-opacity="0.5" stroke-width="0.885" stroke-linecap="round" stroke-linejoin="round"/>
<path d="M109.195 179.945C109.276 181.39 109.306 183.417 109.9 184.828C110.285 185.743 109.978 186.96 110.056 187.934C110.206 189.804 109.927 191.627 109.927 193.441C109.927 195.874 110.049 198.277 110.049 200.697C110.049 202.774 108.02 202.426 106.415 202.135C105.028 201.883 103.167 202.388 101.722 202.406C98.9335 202.44 96.1323 202.65 93.3398 202.65C91.0075 202.65 89.2756 201.973 87.1279 201.158C85.981 200.723 85.2878 200.819 84.0559 200.819C82.8891 200.819 81.9296 200.637 80.76 201.002C80.0757 201.216 78.8503 201.031 78.4611 200.331C77.9944 199.491 78.9222 199.126 78.9222 198.439C78.9222 197.861 78.8497 196.21 79.0443 197.767" stroke="#00ADB5" stroke-opacity="0.5" stroke-width="0.885" stroke-linecap="round" stroke-linejoin="round"/>
<path d="M92.9602 183.119C92.9602 183.119 93.4484 183.363 93.9367 183.852C94.425 184.218 95.4528 184.035 96.317 184.035C96.7718 184.035 97.252 183.68 97.6598 183.499C98.4858 183.132 97.9931 183.822 97.7954 184.218C97.5765 184.656 97.8265 185.469 98.2226 185.744C98.8762 186.196 99.5229 185.806 100.162 185.486C100.428 185.353 100.355 185.292 100.437 185.472C100.548 185.718 100.528 186.073 100.528 186.341C100.528 186.949 100.488 187.96 100.162 188.49C99.733 189.188 99.2993 189.639 98.6092 190.152C97.9274 190.658 97.0266 191.542 96.1204 191.542C94.3494 191.542 92.4697 191.156 91.5835 189.433C91.2079 188.702 90.5188 188.104 90.5188 187.27C90.5188 186.573 90.2883 185.738 90.5188 185.072C90.7982 184.265 91.4954 183.499 91.2512 183.499C91.3757 183.535 92.4719 182.875 92.9602 183.119Z" stroke="#00ADB5" stroke-opacity="0.5" stroke-width="0.885" stroke-linecap="round" stroke-linejoin="round"/>
<path d="M94.9743 182.692C95.6611 182.438 97.2296 181.905 97.5988 181.075C97.8841 180.433 96.941 180.312 96.4391 180.312C95.8304 180.312 95.1091 181.153 94.9472 181.685C94.8572 181.981 94.7716 182.284 94.6827 182.584C94.6399 182.728 94.6971 182.833 94.7268 182.967C94.7495 183.069 95.6807 182.58 95.6457 182.44" stroke="#00ADB5" stroke-opacity="0.5" stroke-width="0.885" stroke-linecap="round" stroke-linejoin="round"/>
<path d="M107.308 196.422L80.282 197.015C77.4231 197.078 75.1382 199.414 75.1382 202.273C75.1382 205.178 77.4929 207.533 80.3975 207.533H107.425C110.358 207.533 112.735 205.155 112.735 202.223V201.73C112.735 198.752 110.286 196.356 107.308 196.422Z" stroke="#00ADB5" stroke-opacity="0.5" stroke-width="0.885"/>
<path d="M86.2019 196.868C86.6073 197.496 86.9573 198.251 87.4225 198.832C87.6565 199.125 87.6189 199.065 88.0725 198.897C88.8297 198.617 89.6876 198.818 90.4776 198.818C91.1711 198.818 91.9774 198.456 92.6515 198.637C93.4324 198.847 94.3529 198.446 95.1216 198.428C96.0477 198.406 96.9305 198.493 97.8516 198.493C98.4069 198.493 98.9483 198.168 99.4622 198.168C99.7604 198.168 100.61 198.404 100.632 197.857C100.643 197.591 100.762 197.332 100.762 197.063C100.762 196.699 100.544 196.856 100.177 196.673" stroke="#00ADB5" stroke-opacity="0.5" stroke-width="0.885" stroke-linecap="round" stroke-linejoin="round"/>
<path d="M218.439 63.4356C218.941 62.7983 219.901 61.6192 218.555 61.4107C218.251 61.3635 217.967 61.1846 217.668 61.32C216.748 61.7369 215.893 62.655 215.893 63.7464C215.893 65.4898 217.805 65.8673 219.194 65.8447C221.537 65.8066 222.25 63.5235 223.078 61.674C223.914 59.8058 224.843 57.9679 225.71 56.1131C226.692 54.0144 228.301 52.3425 229.32 50.2629C229.756 49.3712 230.327 48.5859 230.889 47.7717C231.761 46.5088 232.383 45.2346 233.006 43.8342C233.518 42.6853 234.086 41.6361 234.713 40.5486C234.966 40.1088 234.871 39.4352 235.356 39.9053C235.724 40.2623 236.309 40.4967 236.805 40.5875C238.97 40.984 240.962 41.4038 243.192 41.2264C245.448 41.0471 247.702 40.7239 249.923 40.2939C250.678 40.1477 250.356 40.3237 250 40.7817C249.396 41.5587 248.881 42.3821 248.302 43.1693C247.548 44.1959 247.282 45.4323 246.836 46.606C246.345 47.8962 245.762 49.1286 245.293 50.4399C244.387 52.9743 243.065 55.2856 241.43 57.4127C240.483 58.6454 239.312 60.7984 237.538 60.7112C234.792 60.5763 236.646 55.1711 237.958 54.1141C238.664 53.5451 239.436 54.1577 239.523 54.9215C239.641 55.971 239.281 57.4091 238.262 57.9221C237.187 58.4634 236.363 58.3984 237.19 57.0025C237.691 56.1579 237.989 57.0874 238.194 56.6744" stroke="#00ADB5" stroke-opacity="0.5" stroke-width="1.77" stroke-linecap="round" stroke-linejoin="round"/>
<path d="M425.377 251.73C425.879 251.093 426.839 249.914 425.493 249.705C425.189 249.658 424.904 249.479 424.606 249.615C423.686 250.032 422.831 250.95 422.831 252.041C422.831 253.784 424.743 254.162 426.132 254.139C428.475 254.101 429.188 251.818 430.016 249.969C430.852 248.1 431.781 246.263 432.648 244.408C433.63 242.309 435.239 240.637 436.258 238.558C436.694 237.666 437.264 236.881 437.827 236.066C438.699 234.803 439.321 233.529 439.944 232.129C440.456 230.98 441.024 229.931 441.651 228.843C441.904 228.403 441.809 227.73 442.294 228.2C442.662 228.557 443.247 228.791 443.743 228.882C445.908 229.279 447.9 229.698 450.13 229.521C452.386 229.342 454.64 229.019 456.861 228.589C457.615 228.442 457.294 228.618 456.938 229.076C456.334 229.853 455.818 230.677 455.24 231.464C454.486 232.491 454.22 233.727 453.774 234.901C453.283 236.191 452.699 237.423 452.231 238.735C451.325 241.269 450.003 243.58 448.368 245.707C447.421 246.94 446.25 249.093 444.476 249.006C441.73 248.871 443.584 243.466 444.896 242.409C445.602 241.84 446.374 242.452 446.46 243.216C446.579 244.266 446.219 245.704 445.2 246.217C444.125 246.758 443.301 246.693 444.128 245.297C444.629 244.453 444.926 245.382 445.132 244.969" stroke="#00ADB5" stroke-opacity="0.5" stroke-width="1.77" stroke-linecap="round" stroke-linejoin="round"/>
<path d="M403.25 141.898C400.953 137.734 401.089 136.545 401.613 132.353C401.901 130.045 402.011 127.79 402.595 125.52C403.639 121.459 403.978 115.991 400.709 112.722C394.276 106.289 382.296 115.438 385.923 123.599C387.304 126.706 389.689 129.005 391.413 131.935C392.104 133.11 392.491 134.384 393.39 135.482C394.251 136.535 395.321 137.846 395.321 139.153C395.321 140.258 394.992 141.69 395.773 142.666C396.852 144.015 396.468 143.321 398.066 143.321C399.164 143.321 400.784 142.448 401.669 141.74C402.301 141.234 402.641 142.697 402.641 141.288C402.641 140.078 402.251 141.085 403.047 141.085" stroke="#00ADB5" stroke-opacity="0.5" stroke-width="0.885" stroke-linecap="round" stroke-linejoin="round"/>
<path d="M398.167 145.761C400.342 145.113 406.36 143.665 404.967 145.456C403.286 147.617 402.568 146.534 400.505 146.992C399.451 147.227 398.423 150.482 399.59 150.55C401.258 150.648 402.365 148.404 404.063 148.404C405.61 148.404 405.499 150.439 404.572 151.16C403.347 152.113 401.939 151.089 401.115 152.572C399.813 154.916 403.37 154.535 404.38 153.984C405.397 153.429 406.364 152.563 407.113 152.064" stroke="#00ADB5" stroke-opacity="0.5" stroke-width="0.885" stroke-linecap="round" stroke-linejoin="round"/>
<path d="M403.25 141.237C403.223 141.414 403.194 142.61 402.717 142.61C402.46 142.61 402.342 142.454 402.107 142.584C401.831 142.738 401.572 143.099 401.308 143.31C401.075 143.496 400.384 143.473 400.252 143.705C400.035 144.085 399.595 144.292 399.184 144.338C398.652 144.397 398.455 144.664 397.888 144.538C397.715 144.5 397.697 144.389 397.535 144.389C397.284 144.389 397.176 144.508 396.987 144.298C396.778 144.066 396.436 143.957 396.335 143.604C396.198 143.124 395.695 142.871 396.439 143.169" stroke="#00ADB5" stroke-opacity="0.5" stroke-width="0.885" stroke-linecap="round" stroke-linejoin="round"/>
<path d="M393.44 121.109C394.35 121.114 395.101 121.172 395.411 122.137C395.622 122.793 395.626 123.438 395.626 124.119C395.626 124.782 395.219 125.314 395.219 125.938C395.219 126.762 395.879 126.627 396.436 126.878C396.963 127.115 397.345 127.313 397.631 127.844C397.914 128.369 397.7 129.385 397.662 129.956C397.629 130.447 397.396 131.492 397.735 131.907C397.92 132.133 398.929 132.482 398.269 131.986" stroke="#00ADB5" stroke-opacity="0.5" stroke-width="0.885" stroke-linecap="round" stroke-linejoin="round"/>
<path d="M385.765 130.309C385.037 130.793 384.295 131.198 383.481 131.503C383.139 131.631 382.69 131.86 382.766 131.325" stroke="#00ADB5" stroke-opacity="0.5" stroke-width="0.885" stroke-linecap="round" stroke-linejoin="round"/>
<path d="M383.122 123.294C381.832 123.605 380.55 123.955 379.27 124.3C379.058 124.357 379.546 123.819 379.564 123.803" stroke="#00ADB5" stroke-opacity="0.5" stroke-width="0.885" stroke-linecap="round" stroke-linejoin="round"/>
<path d="M382.766 116.636C381.43 116.442 380.097 116.2 378.768 115.964C378.156 115.855 377.896 115.935 378.242 115.416" stroke="#00ADB5" stroke-opacity="0.5" stroke-width="0.885" stroke-linecap="round" stroke-linejoin="round"/>
<path d="M389.984 109.571C388.928 109.385 388.013 109.206 387.058 108.729C386.612 108.506 386.182 108.237 385.714 108.057C385.159 107.843 385.147 107.908 385.765 107.537" stroke="#00ADB5" stroke-opacity="0.5" stroke-width="0.885" stroke-linecap="round" stroke-linejoin="round"/>
<path d="M399.184 104.996C399.338 106.075 399.287 106.721 398.851 107.698C398.616 108.225 398.417 108.891 398.3 109.46C398.26 109.656 398.238 109.768 398.106 109.915C398.056 109.97 398.238 109.316 398.269 109.215" stroke="#00ADB5" stroke-opacity="0.5" stroke-width="0.885" stroke-linecap="round" stroke-linejoin="round"/>
<path d="M406.961 109.316C406.624 110.44 406.143 111.518 405.854 112.643C405.708 113.212 405.799 113.247 406.046 112.671" stroke="#00ADB5" stroke-opacity="0.5" stroke-width="0.885" stroke-linecap="round" stroke-linejoin="round"/>
<path d="M410.214 117.398C409.059 118.398 408.112 119.638 407.215 120.866C407.103 121.02 406.973 121.074 406.848 121.199C406.565 121.483 407.054 120.843 407.114 120.753" stroke="#00ADB5" stroke-opacity="0.5" stroke-width="0.885" stroke-linecap="round" stroke-linejoin="round"/>
<path d="M151.404 219.357C153.094 226.97 154.997 234.6 156.115 242.328C156.74 246.645 155.369 240.415 155.198 239.535C154.829 237.628 154.406 235.939 154.406 233.99C154.406 230.066 154.301 226.099 154.01 222.171C153.806 219.422 150.429 211.235 154.698 218.065C159.051 225.03 162.124 232.73 165.078 240.327C165.485 241.374 166.049 242.366 166.496 243.37C166.739 243.918 162.171 239.453 160.409 238.492" stroke="#00ADB5" stroke-opacity="0.5" stroke-width="1.77" stroke-linecap="round" stroke-linejoin="round"/>
<path d="M148.778 236.241C153.656 234.295 164.411 230.623 167.538 225.152C168.848 222.86 168.593 223.92 164.911 224.61" stroke="#00ADB5" stroke-opacity="0.5" stroke-width="1.77" stroke-linecap="round" stroke-linejoin="round"/>
<path d="M163.411 210.728C167.175 218.18 169.902 226.114 170.936 234.386C171.031 235.152 171.209 235.994 171.748 236.533C171.849 236.633 169.943 233.066 169.414 232.114" stroke="#00ADB5" stroke-opacity="0.5" stroke-width="1.77" stroke-linecap="round" stroke-linejoin="round"/>
<path d="M163.411 210.353C166.33 212.101 177.051 218.559 170.06 222.672C169.447 223.033 168.727 223.366 168.288 223.943C167.359 225.166 167.247 225.524 167.913 223.86" stroke="#00ADB5" stroke-opacity="0.5" stroke-width="1.77" stroke-linecap="round" stroke-linejoin="round"/>
<path d="M173.166 206.601C174.409 215.025 176.543 224.281 176.543 232.864C176.543 234.759 176.226 231.25 175.792 230.238" stroke="#00ADB5" stroke-opacity="0.5" stroke-width="1.77" stroke-linecap="round" stroke-linejoin="round"/>
<path d="M181.795 221.609C183.855 227.749 184.914 231.367 178.877 233.156C176.814 233.768 179.307 230.771 179.836 230.405C181.642 229.154 183.44 225.13 181.42 223.109C180.616 222.306 178.693 223.321 178.127 222.359C177.293 220.941 179.162 218.257 180.295 217.565C183.552 215.574 183.142 218.379 181.795 217.481" stroke="#00ADB5" stroke-opacity="0.5" stroke-width="1.77" stroke-linecap="round" stroke-linejoin="round"/>
<path d="M294.501 107.667C295.745 114.211 300.865 133.319 297.886 127.361C297.565 126.719 297.298 126.175 297.271 125.446C297.171 122.752 296.97 119.935 296.04 117.377C295.262 115.238 295.425 113.02 295.425 110.744C295.425 110.288 294.65 106.7 294.724 106.675C295.507 106.414 298.738 110.341 299.322 111.018C302.277 114.441 305.263 118.375 307.375 122.386C308.461 124.451 308.789 125.191 306.195 125.515" stroke="#00ADB5" stroke-opacity="0.5" stroke-width="1.77" stroke-linecap="round" stroke-linejoin="round"/>
<path d="M294.194 120.899C297.081 119.434 299.832 118.263 302.81 117.206" stroke="#00ADB5" stroke-opacity="0.5" stroke-width="1.77" stroke-linecap="round" stroke-linejoin="round"/>
<path d="M302.503 107.974C305.46 112.404 308.275 117.117 311.717 121.207C312.208 121.79 313.239 122.849 313.239 121.48C313.239 119.612 312.204 117.681 311.734 115.907C310.983 113.07 310.284 110.219 309.649 107.359C309.035 104.598 309.467 105.629 310.503 107.701C312.22 111.135 314.028 114.262 316.418 117.309C318.029 119.361 318.196 118.218 318.196 116.42C318.196 113.153 316.601 110.466 315.427 107.53C314.172 104.393 314.256 100.111 312.828 97.2555C312.273 96.1448 312.196 99.6647 312.042 100.897" stroke="#00ADB5" stroke-opacity="0.5" stroke-width="1.77" stroke-linecap="round" stroke-linejoin="round"/>
<path d="M319.119 96.8965C319.198 97.2579 320.344 106.217 322.368 105.205C323.254 104.762 323.472 103.405 324.385 102.948C325.864 102.209 327.463 103.519 328.043 104.795C329.577 108.169 327.812 112.076 325.035 114.129C321.187 116.973 322.504 111.853 322.504 110.436" stroke="#00ADB5" stroke-opacity="0.5" stroke-width="1.77" stroke-linecap="round" stroke-linejoin="round"/>
<path d="M320.966 96.281C320.412 97.7943 319.405 104.82 319.102 102.094C318.915 100.411 319.247 99.1307 319.427 97.5119C319.854 93.6719 322.792 96.7609 321.581 94.7424" stroke="#00ADB5" stroke-opacity="0.5" stroke-width="1.77" stroke-linecap="round" stroke-linejoin="round"/>
<path d="M300.444 298.405C300.341 298.216 295.902 290.571 296.286 290.351C296.819 290.047 297.813 290.343 298.44 290.108C300.293 289.413 301.784 287.979 303.309 286.793C304.913 285.546 307.11 295.332 307.598 297.393C308.189 299.887 309.727 303.202 306.849 304.641C304.254 305.938 300.841 305.547 298.009 305.484C293.389 305.381 290.196 297.797 289.656 294.022C289.264 291.274 285.458 282.452 289.544 280.688C290.638 280.215 292.496 280.538 293.683 280.538C295.381 280.538 296.863 279.527 298.59 279.527C301.337 279.527 302.168 282.958 299.77 279.189" stroke="#00ADB5" stroke-opacity="0.5" stroke-width="1.77" stroke-linecap="round" stroke-linejoin="round"/>
<path d="M308.197 281.886C308.676 283.631 310.217 293.32 314.265 290.838C315.036 290.366 315.596 289.221 315.876 288.404C316.621 286.222 316.779 284.4 315.108 282.729C313.856 281.478 311.439 278.922 309.621 278.852C305.111 278.679 309.089 283.73 308.534 282.898" stroke="#00ADB5" stroke-opacity="0.5" stroke-width="1.77" stroke-linecap="round" stroke-linejoin="round"/>
<path d="M308.871 266.379C312.201 271.644 317.226 277.433 319.247 283.497C319.504 284.27 319.514 284.796 319.996 285.52C320.724 286.611 321.068 288.195 321.756 286.531C322.754 284.121 325.026 281.981 326.813 280.126C329.017 277.837 329.319 278.515 325.39 278.515" stroke="#00ADB5" stroke-opacity="0.5" stroke-width="1.77" stroke-linecap="round" stroke-linejoin="round"/>
<path d="M332.132 264.694C331.714 265.639 325.363 278.206 331.495 275.35C332.715 274.782 333.96 273.898 333.799 272.447C333.643 271.049 332.475 269.95 331.87 268.739C331.527 268.055 330.16 264.758 330.634 265.705C332.041 268.521 333.932 273.536 336.027 275.631C338.468 278.071 339.93 275.507 337.526 274.133" stroke="#00ADB5" stroke-opacity="0.5" stroke-width="1.77" stroke-linecap="round" stroke-linejoin="round"/>
<path d="M335.84 266.042C345.223 280.926 333.35 264.226 336.084 261.304C338.729 258.476 341.854 263.907 342.844 265.63C344.57 268.633 346.267 276.424 343.594 268.402" stroke="#00ADB5" stroke-opacity="0.5" stroke-width="1.77" stroke-linecap="round" stroke-linejoin="round"/>
<path d="M347.639 253.232C347.479 253.795 342.447 267.958 346.215 266.642C347.817 266.082 349.425 264.816 350.279 263.364C351.265 261.688 351.724 259.389 351.01 257.54C350.523 256.279 349.996 254.931 349.324 253.757C347.729 250.965 352.028 259.592 353.313 262.54C355.195 266.857 359.728 281.989 349.043 278.984C344.383 277.673 348.772 270.425 348.313 270.425" stroke="#00ADB5" stroke-opacity="0.5" stroke-width="1.77" stroke-linecap="round" stroke-linejoin="round"/>
<path d="M214.961 183.582C216.636 183.122 218.064 182.658 219.242 181.333C219.707 180.81 219.77 180.143 220.007 179.51C220.316 178.688 219.932 177.636 219.668 176.847C219.458 176.215 220.608 175.861 221.019 175.835C221.724 175.789 222.264 176.238 222.942 176.278C223.757 176.326 224.626 176.587 225.191 177.223C225.575 177.654 226.089 177.756 226.513 178.13C226.915 178.485 227.233 179.105 227.524 179.56C228.366 180.876 228.605 182.411 228.85 183.917C228.967 184.639 229.038 185.424 228.917 186.153C228.771 187.024 228.926 187.861 228.582 188.695C228.345 189.272 227.965 190.036 227.424 190.376C226.869 190.725 226.353 190.851 226.212 191.576C225.915 193.09 226.675 194.572 226.383 196.1C226.123 197.456 224.33 197.664 223.222 197.881C222.457 198.031 221.066 198.265 220.329 197.864C218.956 197.118 217.961 196.184 216.943 194.996C216.04 193.943 215.699 192.404 215.58 191.057C215.458 189.683 215.457 188.191 215.488 186.801C215.508 185.879 215.776 184.953 215.864 184.034C215.936 183.281 216.174 183.221 215.789 184.184" stroke="#00ADB5" stroke-opacity="0.5" stroke-width="0.885" stroke-linecap="round" stroke-linejoin="round"/>
<path d="M224.669 176.734C225.235 175.274 225.857 173.816 226.291 172.311C226.486 171.634 226.533 170.918 226.776 170.258C227.059 169.49 227.198 168.623 227.319 167.82C227.406 167.245 227.449 166.226 227.976 165.864C228.36 165.599 228.58 164.994 228.992 164.676C229.521 164.268 230.273 163.888 230.647 163.343C231.016 162.807 231.409 161.7 231.099 161.081C230.927 160.737 230.951 160.366 230.781 160.027C230.561 159.586 230.363 159.229 230.196 158.752C230.05 158.334 229.591 157.502 230.125 157.205C231.431 156.479 231.521 157.622 231.927 158.664C232.136 159.203 232.168 159.86 232.362 160.42C232.494 160.803 232.729 160.526 232.909 160.746C233.18 161.078 233.194 161.492 233.398 161.85C233.705 162.386 233.345 163.474 233.189 163.999C232.901 164.971 232.605 165.85 232.178 166.783C231.078 169.187 229.285 171.21 228.055 173.54C227.587 174.426 227.213 175.319 226.985 176.299C226.855 176.857 226.475 177.387 226.475 177.976C226.475 178.513 226.342 178.788 226.625 177.938" stroke="#00ADB5" stroke-opacity="0.5" stroke-width="0.885" stroke-linecap="round" stroke-linejoin="round"/>
<path d="M230.539 158.597C229.58 158.744 228.535 158.8 227.679 159.229C227.561 159.287 227.744 159.134 227.829 159.124C228.977 158.989 230.23 157.966 231.275 157.468C232.052 157.098 233.114 156.264 234 156.264C234.257 156.264 233.148 156.979 233.022 157.092" stroke="#00ADB5" stroke-opacity="0.5" stroke-width="0.885" stroke-linecap="round" stroke-linejoin="round"/>
<path d="M229.56 160.253C230.627 159.633 232.484 158.961 233.265 157.92C233.341 157.819 233.396 157.682 233.507 157.619C233.895 157.398 233.21 157.644 233.097 157.694" stroke="#00ADB5" stroke-opacity="0.5" stroke-width="0.885" stroke-linecap="round" stroke-linejoin="round"/>
<path d="M230.313 161.231C231.593 160.741 233.932 160.306 234.636 158.898C234.738 158.695 234.512 158.748 234.377 158.748" stroke="#00ADB5" stroke-opacity="0.5" stroke-width="0.885" stroke-linecap="round" stroke-linejoin="round"/>
<path d="M231.668 161.081C231.586 162.806 231.603 164.561 230.618 166.039C230.138 166.76 229.805 167.24 229.636 168.084C229.455 168.986 229.257 169.739 228.846 170.563C228.439 171.376 227.963 172.04 227.562 172.821C227.354 173.225 226.843 173.615 226.943 174.1C226.994 174.345 226.872 174.565 226.793 174.794C226.558 175.473 226.118 176.072 225.706 176.659C225.426 177.057 225.429 177.772 225.798 177.035" stroke="#00ADB5" stroke-opacity="0.5" stroke-width="0.885" stroke-linecap="round" stroke-linejoin="round"/>
<path d="M225.572 175.003C226.251 175.15 227.284 175.605 227.98 175.605C227.993 175.605 227.388 174.875 227.303 174.777" stroke="#00ADB5" stroke-opacity="0.5" stroke-width="0.885" stroke-linecap="round" stroke-linejoin="round"/>
<path d="M226.023 171.917C226.984 172.327 227.946 172.734 228.9 173.159C229.123 173.259 229.11 173.274 229.034 173.197C228.868 173.031 228.728 172.853 228.582 172.67" stroke="#00ADB5" stroke-opacity="0.5" stroke-width="0.885" stroke-linecap="round" stroke-linejoin="round"/>
<path d="M226.926 169.886C228.083 170.245 229.238 170.632 230.409 170.948C230.54 170.983 230.724 171.053 230.597 170.922C230.345 170.662 230.055 170.431 229.786 170.187" stroke="#00ADB5" stroke-opacity="0.5" stroke-width="0.885" stroke-linecap="round" stroke-linejoin="round"/>
<path d="M227.529 167.327C228.846 167.971 230.157 168.665 231.509 169.238C231.731 169.332 231.805 169.401 231.76 169.225C231.698 168.986 231.606 168.761 231.517 168.531" stroke="#00ADB5" stroke-opacity="0.5" stroke-width="0.885" stroke-linecap="round" stroke-linejoin="round"/>
<path d="M229.184 165.521C229.304 165.578 232.948 167.555 232.646 166.8" stroke="#00ADB5" stroke-opacity="0.5" stroke-width="0.885" stroke-linecap="round" stroke-linejoin="round"/>
<path d="M229.937 164.317C231.036 164.575 232.148 164.811 233.248 164.994" stroke="#00ADB5" stroke-opacity="0.5" stroke-width="0.885" stroke-linecap="round" stroke-linejoin="round"/>
<path d="M231.141 163.113C231.643 163.137 232.144 163.162 232.646 163.188" stroke="#00ADB5" stroke-opacity="0.5" stroke-width="0.885" stroke-linecap="round" stroke-linejoin="round"/>
<path d="M221.207 185.689C220.684 185.897 217.463 186.698 217.444 187.587C217.437 187.935 217.444 188.283 217.486 188.628C217.615 189.7 218.361 190.261 219.276 190.773C220.437 191.424 221.688 191.444 222.955 191.074C224.158 190.722 224.941 189.391 224.46 188.248C224.36 188.011 224.706 187.963 224.481 187.688C224.262 187.42 224.118 187.576 223.766 187.646" stroke="#00ADB5" stroke-opacity="0.5" stroke-width="0.885" stroke-linecap="round" stroke-linejoin="round"/>
<path d="M219.627 188.474C220.226 186.959 220.972 185.445 221.32 183.845C221.411 183.427 221.524 183.074 221.751 182.696C222.231 181.896 222.653 181.043 222.938 180.154C223.209 179.311 223.226 178.478 223.582 177.654C223.709 177.359 224.468 176.477 224.142 176.884" stroke="#00ADB5" stroke-opacity="0.5" stroke-width="0.885" stroke-linecap="round" stroke-linejoin="round"/>
<path d="M225.572 177.637C225.293 179.38 224.873 181.048 224.577 182.771C224.413 183.726 224.142 184.524 224.142 185.53C224.142 186.25 224.399 186.85 224.234 187.571C224.044 188.401 223.874 187.992 223.54 187.42" stroke="#00ADB5" stroke-opacity="0.5" stroke-width="0.885" stroke-linecap="round" stroke-linejoin="round"/>
<path d="M224.819 177.637C224.296 178.725 223.164 180.514 223.164 181.889C223.164 182.67 223.214 183.5 223.159 184.293C223.094 185.236 222.358 186.458 221.918 187.27C221.772 187.539 221.581 187.747 221.491 188.039C221.379 188.404 221.459 188.426 221.207 188.022" stroke="#00ADB5" stroke-opacity="0.5" stroke-width="0.885" stroke-linecap="round" stroke-linejoin="round"/>
<path d="M219.401 186.893C220.683 187.81 222.945 189.681 224.518 188.064C224.764 187.812 225.118 187.274 225.254 186.952C225.44 186.512 224.838 186.885 224.443 186.969" stroke="#00ADB5" stroke-opacity="0.5" stroke-width="0.885" stroke-linecap="round" stroke-linejoin="round"/>
<path d="M220.906 185.539C221.637 185.515 223.115 185.713 223.824 185.346C223.848 185.334 223.77 185.355 223.749 185.372C223.679 185.428 223.534 185.336 223.465 185.313" stroke="#00ADB5" stroke-opacity="0.5" stroke-width="0.885" stroke-linecap="round" stroke-linejoin="round"/>
<path d="M221.734 182.754C222.27 182.896 224.211 183.723 224.292 182.83" stroke="#00ADB5" stroke-opacity="0.5" stroke-width="0.885" stroke-linecap="round" stroke-linejoin="round"/>
<path d="M222.637 180.497C223.302 180.931 226 182.941 225.572 180.798" stroke="#00ADB5" stroke-opacity="0.5" stroke-width="0.885" stroke-linecap="round" stroke-linejoin="round"/>
<path d="M223.389 179.443C224.067 179.619 224.744 179.794 225.421 179.97" stroke="#00ADB5" stroke-opacity="0.5" stroke-width="0.885" stroke-linecap="round" stroke-linejoin="round"/>
<path d="M226.701 179.443C227.538 180.232 229.21 182.068 229.259 183.448C229.299 184.574 229.259 185.663 229.259 186.801C229.259 187.63 229.417 188.514 229.335 189.302C229.226 190.335 227.638 190.349 228.018 191.563C228.144 191.969 228.034 192.209 228.39 192.5C228.697 192.751 228.92 193.042 229.034 193.441C229.299 194.37 228.77 195.209 228.13 195.849C227.73 196.249 227.211 197.054 226.738 197.316C226.505 197.446 226.027 197.354 225.76 197.354C225.512 197.354 225.01 197.515 224.786 197.617C224.455 197.767 224.035 197.502 223.615 197.655" stroke="#00ADB5" stroke-opacity="0.5" stroke-width="0.885" stroke-linecap="round" stroke-linejoin="round"/>
<path d="M214.961 183.808C215.264 184.815 215.49 185.654 215.998 186.517C216.206 186.872 216.178 187.194 216.085 187.608C215.978 188.09 215.626 189.22 215.902 189.716C216.324 190.476 216.315 191.282 216.315 192.124C216.315 192.935 217.584 193.288 218 193.704C218.618 194.322 218.35 195.111 219.367 195.381C219.59 195.439 219.938 195.443 220.112 195.585C220.244 195.693 220.398 195.964 220.572 195.995C220.93 196.06 221.41 195.989 221.734 196.133C222.004 196.253 222.202 196.427 222.449 196.564C222.721 196.715 223.093 196.545 223.389 196.693C224.401 197.199 223.949 196.718 223.239 196.15" stroke="#00ADB5" stroke-opacity="0.5" stroke-width="0.885" stroke-linecap="round" stroke-linejoin="round"/>
<path d="M140.07 146.011C138.059 148.584 129.424 158.88 136.781 161.21C139.065 161.933 142.036 160.271 144.497 160.511C147.977 160.85 149.933 163.809 150.789 166.88C151.775 170.418 146.336 176.708 148.951 178.61C153.43 181.867 159.88 176.359 163.581 180.733C165.678 183.212 163.472 186.814 164.772 180.966" stroke="#00ADB5" stroke-opacity="0.5" stroke-width="0.885" stroke-linecap="round" stroke-linejoin="round"/>
<path d="M241.061 105.928C243 108.496 247.612 114.281 249.347 117.58C250.824 120.388 248.963 120.275 247.379 119.16C245.486 117.825 245.751 114.988 246.292 113.023C248.116 106.389 259.925 100.289 261.258 110.485C261.726 114.067 258.525 120.089 254.163 118.668C248.405 116.791 248.772 108.003 253.127 104.737C257.582 101.396 264.883 105.235 264.883 110.692C264.883 116.751 257.681 118.627 254.888 113.282C252.35 108.423 256.848 103.341 261.672 102.614C263.447 102.346 268.03 104.396 264.831 105.462" stroke="#00ADB5" stroke-opacity="0.5" stroke-width="0.885" stroke-linecap="round" stroke-linejoin="round"/>
<path d="M338.471 152.07C335.453 155.068 325.915 162.06 333.939 164.783C338.609 166.367 342.931 163.77 345.824 160.226C349.017 156.315 349.558 150.13 344.478 147.59C340.527 145.615 337.122 142.441 333.81 147.409" stroke="#00ADB5" stroke-opacity="0.5" stroke-width="0.885" stroke-linecap="round" stroke-linejoin="round"/>
<path d="M441.474 193.084C435.711 196.517 426.96 200.664 435.881 203.908C437.252 204.406 438.145 204.082 439.351 203.234C443.81 200.101 444.073 198.845 443.804 194.016C443.627 190.819 438.951 191.549 436.813 192.618C433.661 194.195 431.461 197.349 430.184 200.542C428.466 204.837 437.349 204.574 438.574 199.402C439.342 196.16 435.633 191.554 433.085 195.518C429.708 200.771 434.86 205.468 438.108 199.972C441.218 194.708 433.951 192.537 431.997 198.677C429.428 206.75 444.698 197.985 439.144 195.208C435.833 193.552 430.243 204.064 436.347 201.448C443.759 198.271 435.467 193.59 435.467 201.008C435.467 207.027 445.423 198.291 438.936 195.933C437.453 195.393 435.99 200.132 437.046 201.189C438.884 203.026 442.077 198.268 441.914 196.554C441.214 189.199 434.014 207.898 442.587 199.325C444.546 197.366 444.465 193.826 441.215 195.907C439.297 197.134 438.083 202.345 441.707 201.137C445.187 199.977 445.186 193.531 441.448 195.026C439.166 195.939 438.34 199.169 435.881 198.677" stroke="#00ADB5" stroke-opacity="0.5" stroke-width="0.885" stroke-linecap="round" stroke-linejoin="round"/>
<path d="M391.137 241.09C390.176 242.152 374.818 261.101 382.541 251.447C384.307 249.24 385.93 247.068 388.341 245.518C389.827 244.562 391.259 243.972 392.536 242.695C393.931 241.3 391.953 241.392 391.629 244.301C391.348 246.834 391.564 257.894 391.137 257.869C388.259 257.699 386.371 254.866 383.706 253.933C382.278 253.433 378.046 254.153 379.227 253.208C382.113 250.899 390.955 244.276 388.341 246.89C386.361 248.871 382.291 256.313 383.68 253.881C384.668 252.152 387.341 246.518 386.943 247.46C386.123 249.401 384.697 252.725 384.82 254.865C384.936 256.896 388.97 251.898 389.221 251.396C391.091 247.655 387.222 256.067 388.6 254.063C389.841 252.257 394.036 247.669 391.034 252.172C390.377 253.158 394.144 248.611 393.468 249.583C393.272 249.865 391.564 252.73 392.562 251.732C396.135 248.159 390.87 251.874 390.205 250.878" stroke="#00ADB5" stroke-opacity="0.5" stroke-width="0.885" stroke-linecap="round" stroke-linejoin="round"/>
<path d="M359.91 318.459C361.542 316.135 370.865 305.885 363.199 305.434C361.903 305.358 359.232 304.938 358.15 305.823C355.577 307.928 356.692 313.606 360.169 314.238C364.78 315.076 369.101 308.771 364.105 306.341C358.885 303.801 346.565 314.001 351.884 318.2C362.356 326.467 371.825 302.442 358.279 305.901C345.992 309.038 356.817 321.694 362.396 313.539C368.37 304.808 349.95 304.733 353.204 314.497C354.809 319.313 360.078 316.989 361.024 313.099C362.411 307.396 356.74 309.751 356.648 313.694C356.55 317.921 363.061 310.274 359.16 310.613C356.34 310.858 356.062 314.73 353.851 314.73" stroke="#00ADB5" stroke-opacity="0.5" stroke-width="0.885" stroke-linecap="round" stroke-linejoin="round"/>
<path d="M174.412 274.648C175.354 278.918 177.209 291.838 177.209 287.465C177.209 284.446 174.903 281.628 174.438 278.609C174.276 277.554 174.611 274.433 173.713 273.715C173.099 273.224 178.903 277.742 180.445 278.609C183.26 280.192 185.277 283.15 187.721 280.007C188.895 278.499 192.347 278.291 192.822 277.91C196.273 275.149 195.957 271.029 196.758 267.423C197.044 266.138 196.318 271.814 196.318 273.482C196.318 275.617 196.703 278.443 197.276 280.448C198.089 283.294 197.764 275.261 196.991 273.715C195.736 271.205 195.852 268.978 195.852 266.258C195.852 265.184 203.643 278.643 202.273 279.671C201.701 280.1 194.071 277.996 191.761 278.739C189.77 279.378 187.952 280.125 186.064 281.069C185.548 281.327 184.696 282.267 185.028 282.001C186.212 281.055 189.832 278.467 188.395 278.946C186.42 279.604 184.48 281.515 182.698 282.571C179.339 284.561 178.252 284.283 176.846 287.698C176.644 288.19 179.151 288.127 179.643 288.267C183.17 289.275 185.387 286.528 188.498 285.264C192.514 283.632 197.132 280.282 201.445 279.774C204.7 279.391 199.75 278.25 199.58 277.91" stroke="#00ADB5" stroke-opacity="0.5" stroke-width="0.885" stroke-linecap="round" stroke-linejoin="round"/>
<path d="M352.453 95.2085C361.237 92.3927 375.463 89.1544 383.318 82.728C384.743 81.5619 386.95 80.4441 386.451 78.1967C384.575 69.7538 380.492 67.7737 372.443 68.6681C367.978 69.1641 363.693 73.2825 359.548 74.9601C355.281 76.6871 351.012 78.9563 347.119 81.4334C343.18 83.9404 345.462 85.1823 345.462 89.512C345.462 91.8929 346.884 95.2085 349.424 95.2085C350.581 95.2085 353.899 94.2763 350.615 94.2763C348.037 94.2763 344.036 94.667 341.733 93.4478C339.975 92.5168 343.446 90.6836 344.271 90.5736C347.217 90.1809 340.895 93.0624 340.258 93.2665C338.946 93.6863 344.991 89.1048 341.63 90.1852C337.986 91.3564 343.394 88.2157 344.53 87.6477C345.812 87.0065 344.693 88.0216 344.996 87.4923C345.48 86.6455 348.281 83.534 345.747 86.0682C344.898 86.9166 347.662 84.6212 348.595 83.8673C350.353 82.4474 348.123 84.6017 347.689 84.9548C345.69 86.5821 345.221 85.269 343.598 85.9905C342.919 86.2921 341.267 87.2925 341.267 86.12C341.267 84.0971 348.405 83.1757 349.708 83.1164C357.692 82.7535 363.278 79.232 370.63 77.394C374.168 76.5096 378.035 75.2358 381.35 73.6654C383.809 72.5007 388.734 68.8544 391.345 69.6002C392.37 69.8933 376.544 79.102 381.091 76.0994C384.852 73.6156 389.165 71.8715 383.525 76.5396C379.006 80.2792 386.956 75.9233 387.59 76.1771C388.73 76.633 380.572 81.292 386.787 78.4298C389.164 77.3351 391.137 77.281 391.137 74.7011C391.137 71.1992 392.096 67.0485 387.642 68.6681C382.503 70.5368 378.378 74.5313 373.064 76.0994C369.401 77.1803 365.832 78.5454 362.241 79.828C358.074 81.3163 350.531 82.9804 347.559 86.612C345.976 88.5474 343.156 96.0898 348.983 92.8263C354.33 89.8324 355.181 83.7752 358.046 78.9994C359.469 76.6273 355.566 84.0096 354.991 86.7155C354.329 89.8277 357.258 93.4092 360.609 92.8263C364.286 92.187 368.153 87.1102 369.465 84.0227C375.772 69.1825 364.332 83.576 367.575 86.8191C371.016 90.2609 376.261 81.1434 376.948 78.8958C377.776 76.1877 378.262 72.8495 379.253 70.2734C380.538 66.9324 372.333 70.6953 371.562 71.0761C367.295 73.1851 364.316 75.9984 361.412 79.7244C360.361 81.0731 356.143 87.4213 359.03 88.8647C362.899 90.7991 367.648 84.7866 367.756 81.6664C368.12 71.0968 359.418 76.5138 354.162 80.6566C350.914 83.2165 353.736 88.3328 354.317 87.7513" stroke="#00ADB5" stroke-opacity="0.5" stroke-width="0.885" stroke-linecap="round" stroke-linejoin="round"/>
<path d="M234.536 347.821C234.334 347.983 226.665 354.598 226.665 352.715C226.665 351.612 227.513 350.432 228.27 349.712C229.766 348.287 235.675 347.191 234.251 350.67C233.297 353.003 229.396 356.442 228.296 352.042C227.839 350.215 230.975 346.549 232.879 348.106C234.979 349.824 230.465 352.013 229.047 351.239C226.514 349.858 229.556 344.939 231.999 345.957C234.554 347.022 231.04 349.932 229.875 350.514C227.153 351.875 227.534 349.675 226.147 348.288" stroke="#00ADB5" stroke-opacity="0.5" stroke-width="0.885" stroke-linecap="round" stroke-linejoin="round"/>
<path d="M108.23 347.355C110.916 351.782 116.033 356.376 110.819 360.406C109.474 361.445 101.54 365.6 102.015 360.768C102.594 354.884 111.363 354.753 111.906 349.479C112.443 344.263 99.9867 346.228 97.1474 342.695C95.3686 340.481 93.9342 335.576 94.3509 332.752C94.5132 331.652 97.3024 329.517 97.0179 331.509C96.497 335.155 84.7397 344.496 91.7098 347.563C96.3829 349.619 97.5886 344.413 101.031 343.161C108.123 340.582 97.5099 359.708 97.5099 354.813" stroke="#00ADB5" stroke-opacity="0.5" stroke-width="0.885" stroke-linecap="round" stroke-linejoin="round"/>
<path d="M336.607 407.945C334.448 413.053 330.082 428.793 330.082 423.248C330.082 422.384 330.249 421.7 330.548 420.892C331.951 417.095 333.575 413.561 335.934 410.224C337.221 408.402 338.754 403.068 340.594 407.117C341.453 409.005 343.908 414.263 342.873 416.335C341.573 418.934 337.538 420.426 334.846 420.529C334.145 420.556 326.793 421.522 329.175 419.338C331.975 416.772 334.684 408.966 338.911 408.437C339.564 408.356 340.927 408.792 341.501 409.11C342.51 409.671 341.28 410.685 340.801 411.467C340.227 412.405 335.683 418.743 335.675 418.458C335.546 414.211 339.903 408.045 342.251 404.838C343.094 403.688 338.613 411.492 337.591 413.253C336.799 414.616 337.832 417.512 334.276 416.801" stroke="#00ADB5" stroke-opacity="0.5" stroke-width="0.885" stroke-linecap="round" stroke-linejoin="round"/>
<path d="M192.123 33.2204C190.044 41.3554 188.191 49.1064 187.437 57.4045C187.361 58.2345 186.836 58.7712 187.359 59.4242C188.136 60.396 190.193 54.2169 190.984 52.5625C193.492 47.3185 196.318 45.2491 196.318 38.8133C196.318 37.8846 196.318 32.5396 196.318 36.0686C196.318 39.0646 196.886 42.0258 196.68 45.0276C196.525 47.2965 194.347 53.4197 195.955 51.8116C198.437 49.3295 196.449 36.8844 192.563 36.5606C187.26 36.1186 184.702 47.6142 184.096 51.1902C183.391 55.3507 186.324 57.0925 189.56 53.8572C193.976 49.4411 194.934 40.3623 191.139 35.1882C185.927 28.08 182.506 40.9057 182.077 44.0437C181.106 51.1419 185.07 53.4165 189.767 48.3678C191.494 46.5109 194.977 43.3001 194.246 40.4186C193.275 36.5858 187.61 40.3077 186.478 41.9722C184.875 44.3325 184.896 50.2116 187.488 51.8893C189.909 53.4556 192.265 46.9652 191.994 45.3383C190.844 38.4386 177.838 49.3917 184.303 53.3134C189.931 56.7267 193.661 41.4563 186.737 43.3446C184.809 43.8704 180.23 49.0669 184.2 49.0669" stroke="#00ADB5" stroke-opacity="0.5" stroke-width="0.885" stroke-linecap="round" stroke-linejoin="round"/>
<path d="M68.6131 166.052C66.5188 171.986 65.011 175.773 59.7059 179.102C58.3739 179.938 56.6136 181.416 56.3398 183.09C55.7547 186.665 61.3945 190.605 64.5997 189.537C71.3533 187.286 61.1336 180.602 60.0425 178.662C58.1428 175.285 65.0089 169.218 68.173 170.997C70.6358 172.383 71.7276 177.211 70.2703 179.568C68.1473 183.002 63.5843 183.138 60.0166 182.598C57.1753 182.167 51.4841 182.752 53.155 186.974C55.2457 192.255 65.1134 189.487 66.5935 185.006C68.0345 180.643 60.2332 178.998 61.9068 174.907C63.0564 172.097 66.6864 168.589 69.9078 168.589C73.7664 168.589 69.913 175.797 69.3381 176.927C66.7997 181.916 62.9157 182.414 57.997 183.763C48.7393 186.301 58.7125 186.658 59.2916 183.763" stroke="#00ADB5" stroke-opacity="0.5" stroke-width="0.885" stroke-linecap="round" stroke-linejoin="round"/>
<path d="M57.4272 229.904C56.4378 233.63 53.5126 239.988 53.8021 244.042C53.9378 245.941 54.4567 240.288 54.6825 238.397C55.1127 234.794 55.6048 230.725 57.5307 227.574C57.8725 227.015 65.7773 236.882 66.4897 238.501C68.3963 242.834 66.0093 242.009 63.0201 243.421C61.3587 244.205 50.0217 248.207 50.0217 247.149C50.0217 246.041 52.159 243.788 52.6628 242.851C54.2397 239.917 55.9317 236.234 56.5986 232.96C58.0229 225.967 56.9611 240.357 56.9611 241.453C56.9611 242.118 57.2196 246.01 55.6664 246.01C53.7226 246.01 56.9805 242.351 57.6343 240.52C58.3276 238.579 61.0873 232.858 60.4049 230.811C59.4383 227.911 58.9548 236.793 58.8513 239.847C58.7811 241.918 57.7792 245.374 59.395 242.022C59.9099 240.954 61.5719 236.576 61.5442 236.895C61.3098 239.59 60.2236 242.368 60.2236 245.078C60.2236 247.851 61.6865 238.923 64.2111 237.776C64.8389 237.49 63.9522 242.753 63.9522 243.524C63.9522 244.927 65.2987 238.134 65.2987 239.537C65.2987 239.927 64.74 242.291 64.3147 241.556C62.5717 238.546 61.2603 236.685 57.6861 235.601C56.0582 235.107 50.884 235.445 52.5851 235.445C53.7033 235.445 55.4594 231.555 56.7021 232.571C58.3509 233.92 56.0881 238.227 55.5629 239.692C54.7028 242.091 54.1643 238.717 56.2879 238.967C58.5005 239.227 56.2431 247.398 57.4789 245.544C58.0525 244.683 59.79 240.439 59.7316 240.935C58.6034 250.524 58.8382 238.313 60.6897 241.09" stroke="#00ADB5" stroke-opacity="0.5" stroke-width="0.885" stroke-linecap="round" stroke-linejoin="round"/>
<path d="M288.135 103.132C294.065 102.839 299.791 105.031 298.855 98.0049C298.39 94.5232 296.439 88.8314 297.456 85.4208C298.536 81.7999 305.166 73.634 299.502 71.0761C294.752 68.9311 288.545 74.9968 287.669 79.1029C287.304 80.8107 287.382 86.1459 290.206 86.1459C292.34 86.1459 293.704 84.0504 295.566 85.9128C298.001 88.3474 298.435 90.5683 296.705 93.629C292.553 100.976 276.125 92.7698 284.976 83.919C286.189 82.7059 290.987 77.1422 293.262 78.7404C296.391 80.9392 295.967 86.6639 294.349 89.512C292.736 92.352 286.813 95.3259 284.484 91.687C283.333 89.8887 283.884 88.6834 285.804 88.6834" stroke="#00ADB5" stroke-opacity="0.5" stroke-width="0.885" stroke-linecap="round" stroke-linejoin="round"/>
<path d="M337.788 146.749C338.335 146.528 355.385 138.11 354.592 142.735C354.167 145.218 354.451 147.532 354.8 150.011C354.933 150.96 357.244 158.349 354.929 158.349C350.615 158.349 346.405 156.183 342.086 157.003C340.296 157.342 336.73 158.569 336.597 155.708C336.497 153.562 334.714 143.917 338.953 144.859C342.447 145.635 342.598 142.862 340.118 149.027C339.766 149.903 337.452 156.479 337.84 156.174C341.717 153.128 343.843 147.27 347.394 143.719C349.612 141.502 345.81 150.401 345.349 151.513C342.989 157.193 349.02 146.699 349.699 145.661C352.679 141.103 350.416 149.264 349.958 150.607C348.579 154.645 352.817 147.105 354.515 146.102C360.14 142.778 354.825 154.258 353.634 151.876" stroke="#00ADB5" stroke-opacity="0.5" stroke-width="0.885" stroke-linecap="round" stroke-linejoin="round"/>
<path d="M291.863 234.565C292.131 241.416 292.011 245.153 297.819 240.831C299.466 239.605 298.767 242.506 298.363 243.213C297.688 244.394 293.731 250.332 297.715 248.055C298.724 247.479 301.444 246.328 301.444 248.547C301.444 248.897 300.225 253.184 301.418 251.991C303.374 250.035 303.409 242.661 303.515 239.795C303.538 239.17 303.812 238.442 303.256 238.76C300.399 240.392 299.043 248.939 297.56 252.276C296.28 255.156 292.588 251.763 290.465 250.412C286.441 247.851 288.972 249.67 289.067 249.479" stroke="#00ADB5" stroke-opacity="0.5" stroke-width="0.885" stroke-linecap="round" stroke-linejoin="round"/>
<path d="M259.704 295.621C259.687 295.838 259.14 309.218 259.238 302.716C259.268 300.731 259.211 298.745 259.238 296.76C259.315 291.124 260.321 293.739 262.76 296.061C263.877 297.126 267.979 299.424 267.317 301.577C267.122 302.211 260.537 303.357 259.497 303.752C258.717 304.048 254.111 306.948 254.111 306.807C254.111 303.344 255.331 299.596 255.742 296.139C256.614 288.819 261.679 308.414 262.009 303.467C262.086 302.302 262.034 295.369 262.034 297.097C262.034 298.385 262.967 305.249 262.967 300.748C262.967 299.73 262.967 298.711 262.967 297.693C262.967 297.212 263.228 299.511 263.407 299.065C264.053 297.45 262.967 294.204 262.967 298.159C262.967 302.598 261.722 299.402 259.005 299.402C256.681 299.402 255.349 307.92 256.545 305.927C257.593 304.181 255.529 297.072 256.442 300.722C256.919 302.633 258.067 300.521 258.772 299.816" stroke="#00ADB5" stroke-opacity="0.5" stroke-width="0.885" stroke-linecap="round" stroke-linejoin="round"/>
<path fill-rule="evenodd" clip-rule="evenodd" d="M257.496 246.502C255.334 245.714 253.275 244.561 251.397 242.961C237.216 230.879 243.297 212.652 251.879 203.162C260.461 193.673 312.961 197.458 288.195 241.419C288.09 241.482 287.984 241.545 287.876 241.609C285.107 250.42 287.442 257.977 290.244 267.044C291.387 270.742 292.607 274.692 293.59 279.08L267.324 277.198C260.104 267.394 257.367 257.512 257.496 246.502Z" fill="#F5B9AB"/>
<path d="M251.397 242.961L251.798 242.489L251.397 242.961ZM257.496 246.502L257.708 245.921C257.955 246.011 258.118 246.247 258.115 246.509L257.496 246.502ZM251.879 203.162L251.42 202.747L251.879 203.162ZM288.195 241.419L288.734 241.723C288.682 241.816 288.606 241.894 288.514 241.949L288.195 241.419ZM287.876 241.609L287.285 241.423C287.331 241.277 287.43 241.153 287.562 241.075L287.876 241.609ZM290.244 267.044L289.652 267.227L289.652 267.227L290.244 267.044ZM293.59 279.08L294.194 278.945C294.237 279.136 294.187 279.336 294.059 279.484C293.932 279.632 293.741 279.711 293.546 279.697L293.59 279.08ZM267.324 277.198L267.279 277.815C267.099 277.802 266.933 277.711 266.825 277.565L267.324 277.198ZM251.798 242.489C253.617 244.039 255.611 245.156 257.708 245.921L257.284 247.084C255.057 246.271 252.933 245.083 250.995 243.432L251.798 242.489ZM252.338 203.577C248.119 208.243 244.52 215.055 243.717 222.159C242.917 229.235 244.884 236.599 251.798 242.489L250.995 243.432C243.729 237.241 241.646 229.451 242.487 222.02C243.324 214.618 247.057 207.571 251.42 202.747L252.338 203.577ZM287.656 241.115C293.805 230.199 295.096 221.886 293.574 215.709C292.057 209.548 287.71 205.378 282.278 202.806C276.836 200.23 270.349 199.284 264.688 199.573C261.86 199.717 259.258 200.168 257.111 200.867C254.952 201.57 253.308 202.504 252.338 203.577L251.42 202.747C252.595 201.448 254.469 200.425 256.727 199.69C258.998 198.951 261.711 198.485 264.625 198.336C270.448 198.039 277.146 199.008 282.807 201.687C288.477 204.371 293.147 208.796 294.777 215.413C296.402 222.013 294.967 230.659 288.734 241.723L287.656 241.115ZM287.562 241.075C287.669 241.013 287.773 240.951 287.875 240.889L288.514 241.949C288.408 242.013 288.299 242.078 288.189 242.143L287.562 241.075ZM289.652 267.227C286.859 258.185 284.45 250.445 287.285 241.423L288.466 241.795C285.764 250.394 288.025 257.768 290.835 266.861L289.652 267.227ZM292.986 279.215C292.009 274.854 290.796 270.927 289.652 267.227L290.835 266.861C291.977 270.557 293.205 274.529 294.194 278.945L292.986 279.215ZM267.368 276.58L293.635 278.463L293.546 279.697L267.279 277.815L267.368 276.58ZM258.115 246.509C257.987 257.395 260.688 267.143 267.822 276.831L266.825 277.565C259.52 267.645 256.746 257.63 256.877 246.495L258.115 246.509Z" fill="black"/>
<path d="M292.907 214.872C297.017 220.59 292.59 234.714 289.324 238.246C316.389 223.228 299.254 189.344 290.903 195.523C289.542 182.996 275.168 178.576 265.369 189.171C240.801 169.331 239.508 203.138 248.18 208.279C256.851 213.42 267.372 208.524 272.832 211.175C278.292 213.826 281.661 229.886 283.43 220.972C285.198 212.059 287.769 207.724 292.907 214.872Z" fill="#00ADB5" stroke="black" stroke-width="1.238"/>
<path d="M317.198 464.325L279.1 461.56L288.269 359.01C288.269 359.01 244.066 254.263 282.011 254.262C335.625 254.263 353.554 336.865 352.885 359.01C352.216 381.155 317.198 464.325 317.198 464.325Z" fill="#EEEEEE" stroke="black" stroke-width="1.238"/>
<path d="M278.812 465.996L279.345 461.366L317.711 462.908L316.865 470.348C315.498 482.379 303.448 490.137 291.93 486.402C283.257 483.59 277.77 475.053 278.812 465.996Z" fill="#F5B9AB" stroke="black" stroke-width="1.238" stroke-linejoin="round"/>
<path d="M223.512 390.527C198.729 366.499 229.527 286.907 234.55 277.435C241.863 263.937 263.813 240.455 293.109 254.512C337.41 275.77 317.166 380.951 309.203 417.41L223.512 390.527Z" fill="#EEEEEE" stroke="black" stroke-width="1.238"/>
<path d="M30.5313 473.943L26.5377 437.843C26.5377 437.843 119.259 407.793 195.676 396.518L300.6 405.581C316.36 442.826 308.588 511.273 191.692 479.806L30.5313 473.943Z" fill="#00ADB5" stroke="black" stroke-width="1.238"/>
<path fill-rule="evenodd" clip-rule="evenodd" d="M142.887 410.694L126.412 461.932L91.8472 460.243L76.0759 364.659C73.4632 348.823 85.6797 334.426 101.729 334.426L123.114 334.426L124.591 332.117L131.77 334.426C137.507 334.433 142.702 336.258 146.913 339.297L292.165 386.021C314.629 393.247 324.732 419.328 312.999 439.801L290.779 478.576C279.244 498.704 252.277 503.433 234.582 488.432L142.887 410.694Z" fill="#00ADB5"/>
<path d="M142.887 410.694L143.287 410.222L142.581 409.623L142.297 410.505L142.887 410.694ZM126.412 461.932L126.382 462.55L126.856 462.573L127.001 462.121L126.412 461.932ZM91.8472 460.243L91.2364 460.344L91.3178 460.837L91.817 460.862L91.8472 460.243ZM76.0759 364.659L76.6867 364.558L76.0759 364.659ZM101.729 334.426L101.729 333.807L101.729 334.426ZM123.114 334.426V335.045L123.452 335.045L123.635 334.76L123.114 334.426ZM124.591 332.117L124.781 331.528L124.327 331.382L124.07 331.783L124.591 332.117ZM131.77 334.426L131.581 335.015L131.673 335.045L131.769 335.045L131.77 334.426ZM146.913 339.297L146.55 339.799L146.63 339.856L146.723 339.886L146.913 339.297ZM292.165 386.021L292.355 385.432L292.165 386.021ZM312.999 439.801L312.462 439.493L312.999 439.801ZM290.779 478.576L290.242 478.269L290.779 478.576ZM234.582 488.432L234.982 487.959L234.582 488.432ZM142.297 410.505L125.823 461.742L127.001 462.121L143.476 410.884L142.297 410.505ZM126.442 461.314L91.8774 459.625L91.817 460.862L126.382 462.55L126.442 461.314ZM92.4579 460.142L76.6867 364.558L75.4652 364.759L91.2364 460.344L92.4579 460.142ZM76.6867 364.558C74.1361 349.1 86.0618 335.045 101.729 335.045L101.729 333.807C85.2976 333.807 72.7902 348.547 75.4652 364.759L76.6867 364.558ZM101.729 335.045L123.114 335.045V333.807L101.729 333.807L101.729 335.045ZM123.635 334.76L125.113 332.45L124.07 331.783L122.592 334.092L123.635 334.76ZM124.402 332.706L131.581 335.015L131.96 333.837L124.781 331.528L124.402 332.706ZM131.769 335.045C137.373 335.052 142.442 336.834 146.55 339.799L147.275 338.795C142.963 335.683 137.642 333.814 131.771 333.807L131.769 335.045ZM146.723 339.886L291.976 386.61L292.355 385.432L147.102 338.708L146.723 339.886ZM291.976 386.61C314.064 393.716 323.999 419.361 312.462 439.493L313.537 440.109C325.465 419.294 315.193 392.778 292.355 385.432L291.976 386.61ZM312.462 439.493L290.242 478.269L291.316 478.884L313.537 440.109L312.462 439.493ZM290.242 478.269C278.9 498.06 252.382 502.711 234.982 487.959L234.182 488.904C252.172 504.156 279.589 499.347 291.316 478.884L290.242 478.269ZM234.982 487.959L143.287 410.222L142.486 411.166L234.182 488.904L234.982 487.959Z" fill="black"/>
<path d="M91.4496 459.853L126.794 461.944L129.535 491.615C129.535 491.615 98.5275 490.716 79.7179 484.833L92.3607 478.619L91.4496 459.853Z" fill="#EEEEEE" stroke="black" stroke-width="1.238" stroke-linejoin="round"/>
<rect width="86.5291" height="16.2242" rx="1.77777" transform="matrix(0.258819 0.965926 0.965926 -0.258819 79.5374 243.561)" fill="#EEEEEE" stroke="black" stroke-width="1.238"/>
<rect width="86.5291" height="16.2242" rx="1.77777" transform="matrix(-1 0 0 1 185.025 318.68)" fill="#00ADB5" stroke="black" stroke-width="1.238"/>
<path d="M26.8128 437.869L31.1845 473.961L4.80149 481.243C4.80149 481.243 -0.169238 450.145 2.23949 430.281L10.9526 441.728L26.8128 437.869Z" fill="#EEEEEE" stroke="black" stroke-width="1.238" stroke-linejoin="round"/>
<path d="M157.83 344.519L177.629 311.529L238.334 344.585C235.551 306.435 261.736 251.533 289.232 254.877C337.469 260.744 301.932 379.642 270.332 400.6C238.733 421.558 157.83 344.519 157.83 344.519Z" fill="#EEEEEE"/>
<path d="M308.439 327.848C300.973 359.13 285.216 390.728 270.332 400.6C238.733 421.558 157.83 344.519 157.83 344.519L177.629 311.529L238.334 344.585L258.968 292.822" stroke="black" stroke-width="1.238"/>
<path d="M174.024 309.026L177.816 311.737L157.869 344.546L151.771 340.199C141.911 333.171 140.967 318.871 149.818 310.607C156.482 304.385 166.608 303.724 174.024 309.026Z" fill="#F5B9AB" stroke="black" stroke-width="1.238" stroke-linejoin="round"/>
</svg>
